# MagicaVoxel @ Ephtracy

# group
o 

# material
mtllib jose_orange.mtl
usemtl palette

# normals
vn -1 0 0
vn 1 0 0
vn 0 0 1
vn 0 0 -1
vn 0 -1 0
vn 0 1 0

# texcoords
vt 0.146484 0.5
vt 0.150391 0.5
vt 0.208984 0.5
vt 0.216797 0.5
vt 0.310547 0.5
vt 0.369141 0.5
vt 0.486328 0.5
vt 0.994141 0.5

# verts
v -0.2 0 0.6
v -0.2 0 0.2
v -0.2 0 -0.1
v -0.2 0 -0.5
v -0.2 0.2 0.6
v -0.2 0.2 0.2
v -0.2 0.2 -0.1
v -0.2 0.2 -0.5
v -0.1 3.2 0.0999999
v -0.1 3.2 -2.38419e-007
v -0.1 3.4 0.0999999
v -0.1 3.4 -2.38419e-007
v 0 1.4 0.6
v 0 1.4 -0.5
v 0 1.6 0.6
v 0 1.6 -0.5
v 0 1.9 0.0999999
v 0 1.9 -2.38419e-007
v 0 2.2 0.2
v 0 2.2 0.0999999
v 0 2.2 -2.38419e-007
v 0 2.2 -0.1
v 0 2.4 0.3
v 0 2.4 0.2
v 0 2.4 -0.1
v 0 2.4 -0.2
v 0 2.5 0.6
v 0 2.5 0.3
v 0 2.5 -0.2
v 0 2.5 -0.5
v 0 3 0.4
v 0 3 -0.3
v 0 3.1 0.3
v 0 3.1 -0.2
v 0 3.2 0.2
v 0 3.2 0.0999999
v 0 3.2 -2.38419e-007
v 0 3.2 -0.1
v 0 3.3 0.3
v 0 3.3 0.2
v 0 3.3 -0.1
v 0 3.3 -0.2
v 0 3.4 0.3
v 0 3.4 0.2
v 0 3.4 0.0999999
v 0 3.4 -2.38419e-007
v 0 3.4 -0.1
v 0 3.4 -0.2
v 0 3.5 0.4
v 0 3.5 0.3
v 0 3.5 0.2
v 0 3.5 0.0999999
v 0 3.5 -2.38419e-007
v 0 3.5 -0.1
v 0 3.5 -0.2
v 0 3.5 -0.3
v 0 3.6 0.4
v 0 3.6 0.0999999
v 0 3.6 -2.38419e-007
v 0 3.6 -0.3
v 0 3.7 0.4
v 0 3.7 -0.3
v 0.1 0.2 0.6
v 0.1 0.2 0.2
v 0.1 0.2 -0.1
v 0.1 0.2 -0.5
v 0.1 0.3 0.6
v 0.1 0.3 0.2
v 0.1 0.3 -0.1
v 0.1 0.3 -0.5
v 0.1 1.1 0.6
v 0.1 1.1 0.2
v 0.1 1.1 -0.1
v 0.1 1.1 -0.5
v 0.1 1.4 0.6
v 0.1 1.4 0.2
v 0.1 1.4 -0.1
v 0.1 1.4 -0.5
v 0.1 2.5 0.6
v 0.1 2.5 0.3
v 0.1 2.5 -0.2
v 0.1 2.5 -0.5
v 0.1 2.7 0.6
v 0.1 2.7 0.3
v 0.1 2.7 -0.2
v 0.1 2.7 -0.5
v 0.1 3 0.5
v 0.1 3 0.4
v 0.1 3 -0.3
v 0.1 3 -0.4
v 0.1 3.5 0.4
v 0.1 3.5 -0.3
v 0.1 3.6 0.4
v 0.1 3.6 -0.3
v 0.1 3.7 0.4
v 0.1 3.7 -0.3
v 0.1 3.8 0.5
v 0.1 3.8 -0.4
v 0.2 0.3 0.6
v 0.2 0.3 0.2
v 0.2 0.3 -0.1
v 0.2 0.3 -0.5
v 0.2 1.1 0.6
v 0.2 1.1 0.2
v 0.2 1.1 -0.1
v 0.2 1.1 -0.5
v 0.2 2.5 2
v 0.2 2.5 1.7
v 0.2 2.5 0.6
v 0.2 2.5 -0.5
v 0.2 2.5 -1.6
v 0.2 2.5 -1.9
v 0.2 2.7 0.6
v 0.2 2.7 0.3
v 0.2 2.7 -0.2
v 0.2 2.7 -0.5
v 0.2 2.8 2
v 0.2 2.8 1.7
v 0.2 2.8 0.6
v 0.2 2.8 0.3
v 0.2 2.8 -0.2
v 0.2 2.8 -0.5
v 0.2 2.8 -1.6
v 0.2 2.8 -1.9
v 0.2 3 0.3
v 0.2 3 -0.2
v 0.2 3.2 0.6
v 0.2 3.2 0.5
v 0.2 3.2 -0.4
v 0.2 3.2 -0.5
v 0.2 3.7 0.6
v 0.2 3.7 0.5
v 0.2 3.7 -0.4
v 0.2 3.7 -0.5
v 0.2 3.8 0.4
v 0.2 3.8 -0.3
v 0.2 4 0.4
v 0.2 4 -0.3
v 0.6 0 0.6
v 0.6 0 0.2
v 0.6 0 -0.1
v 0.6 0 -0.5
v 0.6 0.3 0.6
v 0.6 0.3 0.2
v 0.6 0.3 -0.1
v 0.6 0.3 -0.5
v 0.6 1.1 0.6
v 0.6 1.1 0.2
v 0.6 1.1 -0.1
v 0.6 1.1 -0.5
v 0.6 1.4 0.6
v 0.6 1.4 0.2
v 0.6 1.4 -0.1
v 0.6 1.4 -0.5
v 0.6 2.5 2
v 0.6 2.5 1.7
v 0.6 2.5 0.6
v 0.6 2.5 -0.5
v 0.6 2.5 -1.6
v 0.6 2.5 -1.9
v 0.6 2.8 2
v 0.6 2.8 1.7
v 0.6 2.8 0.6
v 0.6 2.8 0.3
v 0.6 2.8 -0.2
v 0.6 2.8 -0.5
v 0.6 2.8 -1.6
v 0.6 2.8 -1.9
v 0.6 3 0.3
v 0.6 3 -0.2
v 0.6 3.2 0.6
v 0.6 3.2 0.5
v 0.6 3.2 -0.4
v 0.6 3.2 -0.5
v 0.6 3.7 0.6
v 0.6 3.7 0.5
v 0.6 3.7 -0.4
v 0.6 3.7 -0.5
v 0.6 3.9 0.4
v 0.6 3.9 -0.3
v 0.6 4 0.4
v 0.6 4 -0.3
v 0.7 1.4 0.6
v 0.7 1.4 -0.5
v 0.7 1.6 0.6
v 0.7 1.6 -0.5
v 0.7 2.8 0.6
v 0.7 2.8 -0.5
v 0.7 3 0.5
v 0.7 3 -0.4
v 0.7 3.1 0.4
v 0.7 3.1 -0.3
v 0.7 3.8 0.5
v 0.7 3.8 0.4
v 0.7 3.8 -0.3
v 0.7 3.8 -0.4
v 0.7 3.9 0.4
v 0.7 3.9 -0.3
v 0.8 3.1 0.4
v 0.8 3.1 -0.3
v 0.8 3.8 0.4
v 0.8 3.8 -0.3
v 0.2 2.5 2
v 0.2 2.8 2
v 0.6 2.5 2
v 0.6 2.8 2
v -0.2 0 0.6
v -0.2 0.2 0.6
v 0 1.4 0.6
v 0 1.6 0.6
v 0 2.5 0.6
v 0.1 0.2 0.6
v 0.1 0.3 0.6
v 0.1 1.1 0.6
v 0.1 1.4 0.6
v 0.1 2.5 0.6
v 0.1 2.7 0.6
v 0.2 0.3 0.6
v 0.2 1.1 0.6
v 0.2 2.5 0.6
v 0.2 2.7 0.6
v 0.2 3.2 0.6
v 0.2 3.7 0.6
v 0.6 0 0.6
v 0.6 0.3 0.6
v 0.6 1.1 0.6
v 0.6 1.4 0.6
v 0.6 2.5 0.6
v 0.6 2.8 0.6
v 0.6 3.2 0.6
v 0.6 3.7 0.6
v 0.7 1.4 0.6
v 0.7 1.6 0.6
v 0.7 2.8 0.6
v 0.1 3 0.5
v 0.1 3.8 0.5
v 0.2 3.2 0.5
v 0.2 3.7 0.5
v 0.6 3.2 0.5
v 0.6 3.7 0.5
v 0.7 3 0.5
v 0.7 3.8 0.5
v 0 3 0.4
v 0 3.5 0.4
v 0 3.6 0.4
v 0 3.7 0.4
v 0.1 3 0.4
v 0.1 3.5 0.4
v 0.1 3.6 0.4
v 0.1 3.7 0.4
v 0.2 3.8 0.4
v 0.2 4 0.4
v 0.6 3.9 0.4
v 0.6 4 0.4
v 0.7 3.1 0.4
v 0.7 3.8 0.4
v 0.7 3.9 0.4
v 0.8 3.1 0.4
v 0.8 3.8 0.4
v 0.2 2.8 0.3
v 0.2 3 0.3
v 0.3 3 0.3
v 0.6 2.8 0.3
v 0.6 3 0.3
v -0.1 3.2 0.0999999
v -0.1 3.4 0.0999999
v 0 3.2 0.0999999
v 0 3.4 0.0999999
v -0.2 0 -0.1
v -0.2 0.2 -0.1
v 0.1 0.2 -0.1
v 0.1 0.3 -0.1
v 0.1 1.1 -0.1
v 0.1 1.4 -0.1
v 0.2 0.3 -0.1
v 0.2 1.1 -0.1
v 0.6 0 -0.1
v 0.6 0.3 -0.1
v 0.6 1.1 -0.1
v 0.6 1.4 -0.1
v -0.2 0 0.2
v -0.2 0.2 0.2
v 0.1 0.2 0.2
v 0.1 0.3 0.2
v 0.1 1.1 0.2
v 0.1 1.4 0.2
v 0.2 0.3 0.2
v 0.2 1.1 0.2
v 0.6 0 0.2
v 0.6 0.3 0.2
v 0.6 1.1 0.2
v 0.6 1.4 0.2
v -0.1 3.2 -2.38419e-007
v -0.1 3.4 -2.38419e-007
v 0 3.2 -2.38419e-007
v 0 3.4 -2.38419e-007
v 0.2 2.8 -0.2
v 0.2 3 -0.2
v 0.6 2.8 -0.2
v 0.6 3 -0.2
v 0 3 -0.3
v 0 3.5 -0.3
v 0 3.6 -0.3
v 0 3.7 -0.3
v 0.1 3 -0.3
v 0.1 3.5 -0.3
v 0.1 3.6 -0.3
v 0.1 3.7 -0.3
v 0.2 3.8 -0.3
v 0.2 4 -0.3
v 0.6 3.9 -0.3
v 0.6 4 -0.3
v 0.7 3.1 -0.3
v 0.7 3.8 -0.3
v 0.7 3.9 -0.3
v 0.8 3.1 -0.3
v 0.8 3.8 -0.3
v 0.1 3 -0.4
v 0.1 3.8 -0.4
v 0.2 3.2 -0.4
v 0.2 3.7 -0.4
v 0.6 3.2 -0.4
v 0.6 3.7 -0.4
v 0.7 3 -0.4
v 0.7 3.8 -0.4
v -0.2 0 -0.5
v -0.2 0.2 -0.5
v 0 1.4 -0.5
v 0 1.6 -0.5
v 0 2.5 -0.5
v 0.1 0.2 -0.5
v 0.1 0.3 -0.5
v 0.1 1.1 -0.5
v 0.1 1.4 -0.5
v 0.1 2.5 -0.5
v 0.1 2.7 -0.5
v 0.2 0.3 -0.5
v 0.2 1.1 -0.5
v 0.2 2.5 -0.5
v 0.2 2.7 -0.5
v 0.2 3.2 -0.5
v 0.2 3.7 -0.5
v 0.6 0 -0.5
v 0.6 0.3 -0.5
v 0.6 1.1 -0.5
v 0.6 1.4 -0.5
v 0.6 2.5 -0.5
v 0.6 2.8 -0.5
v 0.6 3.2 -0.5
v 0.6 3.7 -0.5
v 0.7 1.4 -0.5
v 0.7 1.6 -0.5
v 0.7 2.8 -0.5
v 0.2 2.5 -1.9
v 0.2 2.8 -1.9
v 0.6 2.5 -1.9
v 0.6 2.8 -1.9
v -0.2 0 0.6
v 0.6 0 0.6
v -0.2 0 0.2
v 0.6 0 0.2
v -0.2 0 -0.1
v 0.6 0 -0.1
v -0.2 0 -0.5
v 0.6 0 -0.5
v 0.1 1.1 0.6
v 0.2 1.1 0.6
v 0.1 1.1 0.2
v 0.2 1.1 0.2
v 0.1 1.1 -0.1
v 0.2 1.1 -0.1
v 0.1 1.1 -0.5
v 0.2 1.1 -0.5
v 0 1.4 0.6
v 0.1 1.4 0.6
v 0.6 1.4 0.6
v 0.7 1.4 0.6
v 0.1 1.4 0.2
v 0.6 1.4 0.2
v 0.1 1.4 -0.1
v 0.6 1.4 -0.1
v 0 1.4 -0.5
v 0.1 1.4 -0.5
v 0.6 1.4 -0.5
v 0.7 1.4 -0.5
v 0.2 2.5 2
v 0.6 2.5 2
v 0.2 2.5 1.7
v 0.6 2.5 1.7
v 0.2 2.5 0.6
v 0.6 2.5 0.6
v 0.2 2.5 -0.5
v 0.6 2.5 -0.5
v 0.2 2.5 -1.6
v 0.6 2.5 -1.6
v 0.2 2.5 -1.9
v 0.6 2.5 -1.9
v 0.1 3 0.5
v 0.7 3 0.5
v 0 3 0.4
v 0.1 3 0.4
v 0.3 3 0.4
v 0.2 3 0.3
v 0.3 3 0.3
v 0.6 3 0.3
v 0.2 3 -0.2
v 0.6 3 -0.2
v 0 3 -0.3
v 0.1 3 -0.3
v 0.6 3 -0.3
v 0.1 3 -0.4
v 0.7 3 -0.4
v 0.7 3.1 0.4
v 0.8 3.1 0.4
v 0.7 3.1 -0.3
v 0.8 3.1 -0.3
v 0.2 3.2 0.6
v 0.6 3.2 0.6
v 0.2 3.2 0.5
v 0.6 3.2 0.5
v -0.1 3.2 0.0999999
v 0 3.2 0.0999999
v -0.1 3.2 -2.38419e-007
v 0 3.2 -2.38419e-007
v 0.2 3.2 -0.4
v 0.6 3.2 -0.4
v 0.2 3.2 -0.5
v 0.6 3.2 -0.5
v -0.2 0.2 0.6
v 0.1 0.2 0.6
v -0.2 0.2 0.2
v 0.1 0.2 0.2
v -0.2 0.2 -0.1
v 0.1 0.2 -0.1
v -0.2 0.2 -0.5
v 0.1 0.2 -0.5
v 0.1 0.3 0.6
v 0.2 0.3 0.6
v 0.1 0.3 0.2
v 0.2 0.3 0.2
v 0.1 0.3 -0.1
v 0.2 0.3 -0.1
v 0.1 0.3 -0.5
v 0.2 0.3 -0.5
v 0 2.5 0.6
v 0.1 2.5 0.6
v 0 2.5 0.3
v 0.1 2.5 0.3
v 0 2.5 -0.2
v 0.1 2.5 -0.2
v 0 2.5 -0.5
v 0.1 2.5 -0.5
v 0.1 2.7 0.6
v 0.2 2.7 0.6
v 0.1 2.7 0.3
v 0.2 2.7 0.3
v 0.1 2.7 -0.2
v 0.2 2.7 -0.2
v 0.1 2.7 -0.5
v 0.2 2.7 -0.5
v 0.2 2.8 2
v 0.6 2.8 2
v 0.2 2.8 1.7
v 0.6 2.8 1.7
v 0.2 2.8 0.6
v 0.6 2.8 0.6
v 0.7 2.8 0.6
v 0.2 2.8 0.3
v 0.6 2.8 0.3
v 0.2 2.8 -0.2
v 0.6 2.8 -0.2
v 0.2 2.8 -0.5
v 0.6 2.8 -0.5
v 0.7 2.8 -0.5
v 0.2 2.8 -1.6
v 0.6 2.8 -1.6
v 0.2 2.8 -1.9
v 0.6 2.8 -1.9
v -0.1 3.4 0.0999999
v 0 3.4 0.0999999
v -0.1 3.4 -2.38419e-007
v 0 3.4 -2.38419e-007
v 0.2 3.7 0.6
v 0.6 3.7 0.6
v 0.2 3.7 0.5
v 0.6 3.7 0.5
v 0 3.7 0.4
v 0.1 3.7 0.4
v 0 3.7 -0.3
v 0.1 3.7 -0.3
v 0.2 3.7 -0.4
v 0.6 3.7 -0.4
v 0.2 3.7 -0.5
v 0.6 3.7 -0.5
v 0.1 3.8 0.5
v 0.7 3.8 0.5
v 0.2 3.8 0.4
v 0.7 3.8 0.4
v 0.8 3.8 0.4
v 0.2 3.8 -0.3
v 0.7 3.8 -0.3
v 0.8 3.8 -0.3
v 0.1 3.8 -0.4
v 0.7 3.8 -0.4
v 0.6 3.9 0.4
v 0.7 3.9 0.4
v 0.6 3.9 -0.3
v 0.7 3.9 -0.3
v 0.2 4 0.4
v 0.6 4 0.4
v 0.2 4 -0.3
v 0.6 4 -0.3

# faces
f 5/5/1 2/5/1 1/5/1
f 6/5/1 2/5/1 5/5/1
f 7/5/1 4/5/1 3/5/1
f 8/5/1 4/5/1 7/5/1
f 11/4/1 10/4/1 9/4/1
f 12/4/1 10/4/1 11/4/1
f 15/3/1 14/3/1 13/3/1
f 16/3/1 14/3/1 15/3/1
f 17/1/1 16/1/1 15/1/1
f 18/1/1 16/1/1 17/1/1
f 19/1/1 17/1/1 15/1/1
f 20/7/1 18/7/1 17/7/1
f 20/1/1 17/1/1 19/1/1
f 21/1/1 16/1/1 18/1/1
f 21/7/1 18/7/1 20/7/1
f 22/1/1 16/1/1 21/1/1
f 23/1/1 19/1/1 15/1/1
f 24/7/1 20/7/1 19/7/1
f 24/1/1 19/1/1 23/1/1
f 24/7/1 21/7/1 20/7/1
f 24/7/1 22/7/1 21/7/1
f 25/1/1 16/1/1 22/1/1
f 25/7/1 22/7/1 24/7/1
f 26/1/1 16/1/1 25/1/1
f 27/1/1 23/1/1 15/1/1
f 28/7/1 24/7/1 23/7/1
f 28/1/1 23/1/1 27/1/1
f 28/7/1 25/7/1 24/7/1
f 28/7/1 26/7/1 25/7/1
f 29/1/1 16/1/1 26/1/1
f 29/7/1 26/7/1 28/7/1
f 30/1/1 16/1/1 29/1/1
f 33/4/1 32/4/1 31/4/1
f 34/4/1 32/4/1 33/4/1
f 35/2/1 34/2/1 33/2/1
f 36/2/1 34/2/1 35/2/1
f 37/2/1 34/2/1 36/2/1
f 38/2/1 34/2/1 37/2/1
f 39/4/1 33/4/1 31/4/1
f 39/2/1 35/2/1 33/2/1
f 40/4/1 36/4/1 35/4/1
f 40/2/1 35/2/1 39/2/1
f 41/2/1 34/2/1 38/2/1
f 41/4/1 38/4/1 37/4/1
f 42/4/1 32/4/1 34/4/1
f 42/2/1 34/2/1 41/2/1
f 43/4/1 40/4/1 39/4/1
f 43/4/1 39/4/1 31/4/1
f 44/4/1 36/4/1 40/4/1
f 44/4/1 40/4/1 43/4/1
f 45/4/1 36/4/1 44/4/1
f 46/4/1 41/4/1 37/4/1
f 46/4/1 42/4/1 41/4/1
f 47/4/1 42/4/1 46/4/1
f 48/4/1 32/4/1 42/4/1
f 48/4/1 42/4/1 47/4/1
f 49/4/1 43/4/1 31/4/1
f 50/8/1 44/8/1 43/8/1
f 50/4/1 43/4/1 49/4/1
f 51/4/1 45/4/1 44/4/1
f 51/8/1 44/8/1 50/8/1
f 51/4/1 47/4/1 46/4/1
f 51/4/1 46/4/1 45/4/1
f 52/4/1 47/4/1 51/4/1
f 53/4/1 47/4/1 52/4/1
f 54/8/1 48/8/1 47/8/1
f 54/4/1 47/4/1 53/4/1
f 55/4/1 32/4/1 48/4/1
f 55/8/1 48/8/1 54/8/1
f 56/4/1 32/4/1 55/4/1
f 57/6/1 50/6/1 49/6/1
f 57/6/1 51/6/1 50/6/1
f 57/6/1 52/6/1 51/6/1
f 58/4/1 53/4/1 52/4/1
f 58/6/1 52/6/1 57/6/1
f 59/6/1 54/6/1 53/6/1
f 59/4/1 53/4/1 58/4/1
f 59/6/1 56/6/1 55/6/1
f 59/6/1 55/6/1 54/6/1
f 60/6/1 56/6/1 59/6/1
f 61/4/1 58/4/1 57/4/1
f 61/4/1 59/4/1 58/4/1
f 61/4/1 60/4/1 59/4/1
f 62/4/1 60/4/1 61/4/1
f 67/5/1 64/5/1 63/5/1
f 68/5/1 64/5/1 67/5/1
f 69/5/1 66/5/1 65/5/1
f 70/5/1 66/5/1 69/5/1
f 75/3/1 72/3/1 71/3/1
f 76/3/1 72/3/1 75/3/1
f 77/3/1 74/3/1 73/3/1
f 78/3/1 74/3/1 77/3/1
f 83/1/1 80/1/1 79/1/1
f 84/7/1 81/7/1 80/7/1
f 84/1/1 80/1/1 83/1/1
f 85/1/1 82/1/1 81/1/1
f 85/7/1 81/7/1 84/7/1
f 86/1/1 82/1/1 85/1/1
f 91/6/1 88/6/1 87/6/1
f 92/6/1 90/6/1 89/6/1
f 93/6/1 91/6/1 87/6/1
f 94/6/1 90/6/1 92/6/1
f 95/6/1 93/6/1 87/6/1
f 96/6/1 90/6/1 94/6/1
f 97/6/1 95/6/1 87/6/1
f 97/6/1 96/6/1 95/6/1
f 98/6/1 90/6/1 96/6/1
f 98/6/1 96/6/1 97/6/1
f 103/4/1 100/4/1 99/4/1
f 104/4/1 100/4/1 103/4/1
f 105/4/1 102/4/1 101/4/1
f 106/4/1 102/4/1 105/4/1
f 113/7/1 109/7/1 108/7/1
f 116/7/1 111/7/1 110/7/1
f 117/4/1 108/4/1 107/4/1
f 118/7/1 113/7/1 108/7/1
f 118/4/1 108/4/1 117/4/1
f 119/1/1 114/1/1 113/1/1
f 119/7/1 113/7/1 118/7/1
f 120/7/1 115/7/1 114/7/1
f 120/1/1 114/1/1 119/1/1
f 121/1/1 116/1/1 115/1/1
f 121/7/1 115/7/1 120/7/1
f 122/7/1 111/7/1 116/7/1
f 122/1/1 116/1/1 121/1/1
f 123/4/1 112/4/1 111/4/1
f 123/7/1 111/7/1 122/7/1
f 124/4/1 112/4/1 123/4/1
f 125/4/1 121/4/1 120/4/1
f 126/4/1 121/4/1 125/4/1
f 131/6/1 128/6/1 127/6/1
f 132/6/1 128/6/1 131/6/1
f 133/6/1 130/6/1 129/6/1
f 134/6/1 130/6/1 133/6/1
f 137/6/1 136/6/1 135/6/1
f 138/6/1 136/6/1 137/6/1
f 139/5/2 140/5/2 143/5/2
f 143/5/2 140/5/2 144/5/2
f 141/5/2 142/5/2 145/5/2
f 145/5/2 142/5/2 146/5/2
f 143/4/2 144/4/2 147/4/2
f 147/4/2 144/4/2 148/4/2
f 145/4/2 146/4/2 149/4/2
f 149/4/2 146/4/2 150/4/2
f 147/3/2 148/3/2 151/3/2
f 151/3/2 148/3/2 152/3/2
f 149/3/2 150/3/2 153/3/2
f 153/3/2 150/3/2 154/3/2
f 155/4/2 156/4/2 161/4/2
f 156/7/2 157/7/2 162/7/2
f 161/4/2 156/4/2 162/4/2
f 162/7/2 157/7/2 163/7/2
f 158/7/2 159/7/2 166/7/2
f 159/4/2 160/4/2 167/4/2
f 166/7/2 159/7/2 167/7/2
f 167/4/2 160/4/2 168/4/2
f 164/4/2 165/4/2 169/4/2
f 169/4/2 165/4/2 170/4/2
f 171/6/2 172/6/2 175/6/2
f 175/6/2 172/6/2 176/6/2
f 173/6/2 174/6/2 177/6/2
f 177/6/2 174/6/2 178/6/2
f 179/6/2 180/6/2 181/6/2
f 181/6/2 180/6/2 182/6/2
f 183/3/2 184/3/2 185/3/2
f 185/3/2 184/3/2 186/3/2
f 185/1/2 186/1/2 187/1/2
f 187/1/2 186/1/2 188/1/2
f 189/6/2 190/6/2 191/6/2
f 191/6/2 190/6/2 192/6/2
f 189/6/2 191/6/2 193/6/2
f 193/6/2 191/6/2 194/6/2
f 192/6/2 190/6/2 195/6/2
f 195/6/2 190/6/2 196/6/2
f 194/6/2 195/6/2 197/6/2
f 197/6/2 195/6/2 198/6/2
f 199/6/2 200/6/2 201/6/2
f 201/6/2 200/6/2 202/6/2
f 205/4/3 204/4/3 203/4/3
f 206/4/3 204/4/3 205/4/3
f 212/5/3 208/5/3 207/5/3
f 215/3/3 210/3/3 209/3/3
f 216/1/3 211/1/3 210/1/3
f 218/5/3 213/5/3 212/5/3
f 219/3/3 215/3/3 214/3/3
f 220/1/3 217/1/3 216/1/3
f 220/1/3 216/1/3 210/1/3
f 221/1/3 217/1/3 220/1/3
f 224/5/3 218/5/3 212/5/3
f 224/5/3 212/5/3 207/5/3
f 225/4/3 219/4/3 218/4/3
f 225/5/3 218/5/3 224/5/3
f 226/3/3 215/3/3 219/3/3
f 226/4/3 219/4/3 225/4/3
f 227/3/3 210/3/3 215/3/3
f 227/3/3 215/3/3 226/3/3
f 228/1/3 220/1/3 210/1/3
f 230/6/3 223/6/3 222/6/3
f 231/6/3 223/6/3 230/6/3
f 232/3/3 210/3/3 227/3/3
f 233/1/3 229/1/3 228/1/3
f 233/3/3 210/3/3 232/3/3
f 233/1/3 228/1/3 210/1/3
f 234/1/3 229/1/3 233/1/3
f 237/6/3 236/6/3 235/6/3
f 238/6/3 236/6/3 237/6/3
f 239/6/3 237/6/3 235/6/3
f 240/6/3 236/6/3 238/6/3
f 241/6/3 239/6/3 235/6/3
f 241/6/3 240/6/3 239/6/3
f 242/6/3 236/6/3 240/6/3
f 242/6/3 240/6/3 241/6/3
f 247/4/3 244/4/3 243/4/3
f 248/6/3 245/6/3 244/6/3
f 248/4/3 244/4/3 247/4/3
f 249/4/3 246/4/3 245/4/3
f 249/6/3 245/6/3 248/6/3
f 250/4/3 246/4/3 249/4/3
f 253/6/3 252/6/3 251/6/3
f 254/6/3 252/6/3 253/6/3
f 256/6/3 253/6/3 251/6/3
f 257/6/3 253/6/3 256/6/3
f 258/6/3 256/6/3 255/6/3
f 259/6/3 256/6/3 258/6/3
f 262/4/3 261/4/3 260/4/3
f 263/4/3 262/4/3 260/4/3
f 264/4/3 262/4/3 263/4/3
f 267/4/3 266/4/3 265/4/3
f 268/4/3 266/4/3 267/4/3
f 271/5/3 270/5/3 269/5/3
f 275/5/3 272/5/3 271/5/3
f 276/3/3 274/3/3 273/3/3
f 277/5/3 271/5/3 269/5/3
f 277/5/3 275/5/3 271/5/3
f 278/4/3 276/4/3 275/4/3
f 278/5/3 275/5/3 277/5/3
f 279/3/3 274/3/3 276/3/3
f 279/4/3 276/4/3 278/4/3
f 280/3/3 274/3/3 279/3/3
f 281/5/4 282/5/4 283/5/4
f 283/5/4 284/5/4 287/5/4
f 285/3/4 286/3/4 288/3/4
f 281/5/4 283/5/4 289/5/4
f 283/5/4 287/5/4 289/5/4
f 287/4/4 288/4/4 290/4/4
f 289/5/4 287/5/4 290/5/4
f 288/3/4 286/3/4 291/3/4
f 290/4/4 288/4/4 291/4/4
f 291/3/4 286/3/4 292/3/4
f 293/4/4 294/4/4 295/4/4
f 295/4/4 294/4/4 296/4/4
f 297/4/4 298/4/4 299/4/4
f 299/4/4 298/4/4 300/4/4
f 301/4/4 302/4/4 305/4/4
f 302/6/4 303/6/4 306/6/4
f 305/4/4 302/4/4 306/4/4
f 303/4/4 304/4/4 307/4/4
f 306/6/4 303/6/4 307/6/4
f 307/4/4 304/4/4 308/4/4
f 309/6/4 310/6/4 311/6/4
f 311/6/4 310/6/4 312/6/4
f 309/6/4 311/6/4 314/6/4
f 314/6/4 311/6/4 315/6/4
f 313/6/4 314/6/4 316/6/4
f 316/6/4 314/6/4 317/6/4
f 318/6/4 319/6/4 320/6/4
f 320/6/4 319/6/4 321/6/4
f 318/6/4 320/6/4 322/6/4
f 321/6/4 319/6/4 323/6/4
f 318/6/4 322/6/4 324/6/4
f 322/6/4 323/6/4 324/6/4
f 323/6/4 319/6/4 325/6/4
f 324/6/4 323/6/4 325/6/4
f 326/5/4 327/5/4 331/5/4
f 328/3/4 329/3/4 334/3/4
f 329/1/4 330/1/4 335/1/4
f 331/5/4 332/5/4 337/5/4
f 333/3/4 334/3/4 338/3/4
f 335/1/4 336/1/4 339/1/4
f 329/1/4 335/1/4 339/1/4
f 339/1/4 336/1/4 340/1/4
f 331/5/4 337/5/4 343/5/4
f 326/5/4 331/5/4 343/5/4
f 337/4/4 338/4/4 344/4/4
f 343/5/4 337/5/4 344/5/4
f 338/3/4 334/3/4 345/3/4
f 344/4/4 338/4/4 345/4/4
f 334/3/4 329/3/4 346/3/4
f 345/3/4 334/3/4 346/3/4
f 329/1/4 339/1/4 347/1/4
f 341/6/4 342/6/4 349/6/4
f 349/6/4 342/6/4 350/6/4
f 346/3/4 329/3/4 351/3/4
f 347/1/4 348/1/4 352/1/4
f 351/3/4 329/3/4 352/3/4
f 329/1/4 347/1/4 352/1/4
f 352/1/4 348/1/4 353/1/4
f 354/4/4 355/4/4 356/4/4
f 356/4/4 355/4/4 357/4/4
f 360/5/5 359/5/5 358/5/5
f 361/5/5 359/5/5 360/5/5
f 364/5/5 363/5/5 362/5/5
f 365/5/5 363/5/5 364/5/5
f 368/3/5 367/3/5 366/3/5
f 369/3/5 367/3/5 368/3/5
f 372/3/5 371/3/5 370/3/5
f 373/3/5 371/3/5 372/3/5
f 378/3/5 375/3/5 374/3/5
f 379/3/5 377/3/5 376/3/5
f 380/3/5 378/3/5 374/3/5
f 380/3/5 379/3/5 378/3/5
f 381/3/5 377/3/5 379/3/5
f 381/3/5 379/3/5 380/3/5
f 382/3/5 380/3/5 374/3/5
f 383/3/5 380/3/5 382/3/5
f 384/3/5 377/3/5 381/3/5
f 385/3/5 377/3/5 384/3/5
f 388/4/5 387/4/5 386/4/5
f 389/4/5 387/4/5 388/4/5
f 390/7/5 389/7/5 388/7/5
f 391/7/5 389/7/5 390/7/5
f 394/7/5 393/7/5 392/7/5
f 395/7/5 393/7/5 394/7/5
f 396/4/5 395/4/5 394/4/5
f 397/4/5 395/4/5 396/4/5
f 401/6/5 399/6/5 398/6/5
f 402/6/5 399/6/5 401/6/5
f 403/4/5 401/4/5 400/4/5
f 403/4/5 402/4/5 401/4/5
f 404/6/5 399/6/5 402/6/5
f 404/4/5 402/4/5 403/4/5
f 405/6/5 399/6/5 404/6/5
f 406/4/5 403/4/5 400/4/5
f 407/6/5 399/6/5 405/6/5
f 408/4/5 406/4/5 400/4/5
f 408/4/5 407/4/5 406/4/5
f 409/4/5 407/4/5 408/4/5
f 410/6/5 399/6/5 407/6/5
f 410/4/5 407/4/5 409/4/5
f 411/6/5 410/6/5 409/6/5
f 412/6/5 399/6/5 410/6/5
f 412/6/5 410/6/5 411/6/5
f 415/6/5 414/6/5 413/6/5
f 416/6/5 414/6/5 415/6/5
f 419/6/5 418/6/5 417/6/5
f 420/6/5 418/6/5 419/6/5
f 423/4/5 422/4/5 421/4/5
f 424/4/5 422/4/5 423/4/5
f 427/6/5 426/6/5 425/6/5
f 428/6/5 426/6/5 427/6/5
f 429/5/6 430/5/6 431/5/6
f 431/5/6 430/5/6 432/5/6
f 433/5/6 434/5/6 435/5/6
f 435/5/6 434/5/6 436/5/6
f 437/5/6 438/5/6 439/5/6
f 439/5/6 438/5/6 440/5/6
f 441/5/6 442/5/6 443/5/6
f 443/5/6 442/5/6 444/5/6
f 445/1/6 446/1/6 447/1/6
f 447/1/6 446/1/6 448/1/6
f 447/7/6 448/7/6 449/7/6
f 449/7/6 448/7/6 450/7/6
f 449/1/6 450/1/6 451/1/6
f 451/1/6 450/1/6 452/1/6
f 453/1/6 454/1/6 455/1/6
f 455/1/6 454/1/6 456/1/6
f 455/7/6 456/7/6 457/7/6
f 457/7/6 456/7/6 458/7/6
f 457/1/6 458/1/6 459/1/6
f 459/1/6 458/1/6 460/1/6
f 461/4/6 462/4/6 463/4/6
f 463/4/6 462/4/6 464/4/6
f 463/7/6 464/7/6 465/7/6
f 465/7/6 464/7/6 466/7/6
f 465/1/6 466/1/6 468/1/6
f 466/1/6 467/1/6 468/1/6
f 468/1/6 467/1/6 469/1/6
f 469/1/6 467/1/6 471/1/6
f 470/1/6 471/1/6 472/1/6
f 471/1/6 467/1/6 473/1/6
f 472/1/6 471/1/6 473/1/6
f 473/1/6 467/1/6 474/1/6
f 472/7/6 473/7/6 475/7/6
f 475/7/6 473/7/6 476/7/6
f 475/4/6 476/4/6 477/4/6
f 477/4/6 476/4/6 478/4/6
f 479/4/6 480/4/6 481/4/6
f 481/4/6 480/4/6 482/4/6
f 483/6/6 484/6/6 485/6/6
f 485/6/6 484/6/6 486/6/6
f 487/4/6 488/4/6 489/4/6
f 489/4/6 488/4/6 490/4/6
f 491/6/6 492/6/6 493/6/6
f 493/6/6 492/6/6 494/6/6
f 495/6/6 496/6/6 497/6/6
f 497/6/6 496/6/6 498/6/6
f 495/6/6 497/6/6 500/6/6
f 498/6/6 499/6/6 501/6/6
f 501/6/6 499/6/6 502/6/6
f 495/6/6 500/6/6 503/6/6
f 500/6/6 501/6/6 503/6/6
f 503/6/6 501/6/6 504/6/6
f 505/6/6 506/6/6 507/6/6
f 507/6/6 506/6/6 508/6/6
f 509/6/6 510/6/6 511/6/6
f 511/6/6 510/6/6 512/6/6
