# MagicaVoxel @ Ephtracy

# group
o 

# material
mtllib jose_blue.mtl
usemtl palette

# normals
vn -1 0 0
vn 1 0 0
vn 0 0 1
vn 0 0 -1
vn 0 -1 0
vn 0 1 0

# texcoords
vt 0.150391 0.5
vt 0.216797 0.5
vt 0.310547 0.5
vt 0.716797 0.5
vt 0.771484 0.5
vt 0.900391 0.5
vt 0.947266 0.5
vt 0.966797 0.5
vt 0.994141 0.5

# verts
v -0.2 0 0.6
v -0.2 0 0.2
v -0.2 0 -0.1
v -0.2 0 -0.5
v -0.2 0.2 0.6
v -0.2 0.2 0.2
v -0.2 0.2 -0.1
v -0.2 0.2 -0.5
v -0.1 3.2 0.0999999
v -0.1 3.2 -2.38419e-007
v -0.1 3.4 0.0999999
v -0.1 3.4 -2.38419e-007
v 0 1.4 0.6
v 0 1.4 -0.5
v 0 1.6 0.6
v 0 1.6 -0.5
v 0 1.9 0.0999999
v 0 1.9 -2.38419e-007
v 0 2.2 0.2
v 0 2.2 0.0999999
v 0 2.2 -2.38419e-007
v 0 2.2 -0.1
v 0 2.4 0.3
v 0 2.4 0.2
v 0 2.4 -0.1
v 0 2.4 -0.2
v 0 2.5 0.6
v 0 2.5 0.3
v 0 2.5 -0.2
v 0 2.5 -0.5
v 0 3 0.4
v 0 3 -0.3
v 0 3.1 0.3
v 0 3.1 -0.2
v 0 3.2 0.2
v 0 3.2 0.0999999
v 0 3.2 -2.38419e-007
v 0 3.2 -0.1
v 0 3.3 0.3
v 0 3.3 0.2
v 0 3.3 -0.1
v 0 3.3 -0.2
v 0 3.4 0.3
v 0 3.4 0.2
v 0 3.4 0.0999999
v 0 3.4 -2.38419e-007
v 0 3.4 -0.1
v 0 3.4 -0.2
v 0 3.5 0.4
v 0 3.5 0.3
v 0 3.5 0.2
v 0 3.5 0.0999999
v 0 3.5 -2.38419e-007
v 0 3.5 -0.1
v 0 3.5 -0.2
v 0 3.5 -0.3
v 0 3.6 0.4
v 0 3.6 0.0999999
v 0 3.6 -2.38419e-007
v 0 3.6 -0.3
v 0 3.7 0.4
v 0 3.7 -0.3
v 0.1 0.2 0.6
v 0.1 0.2 0.2
v 0.1 0.2 -0.1
v 0.1 0.2 -0.5
v 0.1 0.3 0.6
v 0.1 0.3 0.2
v 0.1 0.3 -0.1
v 0.1 0.3 -0.5
v 0.1 1.1 0.6
v 0.1 1.1 0.2
v 0.1 1.1 -0.1
v 0.1 1.1 -0.5
v 0.1 1.4 0.6
v 0.1 1.4 0.2
v 0.1 1.4 -0.1
v 0.1 1.4 -0.5
v 0.1 2.5 0.6
v 0.1 2.5 0.3
v 0.1 2.5 -0.2
v 0.1 2.5 -0.5
v 0.1 2.7 0.6
v 0.1 2.7 0.3
v 0.1 2.7 -0.2
v 0.1 2.7 -0.5
v 0.1 3 0.5
v 0.1 3 0.4
v 0.1 3 -0.3
v 0.1 3 -0.4
v 0.1 3.5 0.4
v 0.1 3.5 -0.3
v 0.1 3.6 0.4
v 0.1 3.6 -0.3
v 0.1 3.7 0.4
v 0.1 3.7 -0.3
v 0.1 3.8 0.5
v 0.1 3.8 -0.4
v 0.2 0.3 0.6
v 0.2 0.3 0.2
v 0.2 0.3 -0.1
v 0.2 0.3 -0.5
v 0.2 1.1 0.6
v 0.2 1.1 0.2
v 0.2 1.1 -0.1
v 0.2 1.1 -0.5
v 0.2 2.5 2
v 0.2 2.5 1.7
v 0.2 2.5 0.6
v 0.2 2.5 -0.5
v 0.2 2.5 -1.6
v 0.2 2.5 -1.9
v 0.2 2.7 0.6
v 0.2 2.7 0.3
v 0.2 2.7 -0.2
v 0.2 2.7 -0.5
v 0.2 2.8 2
v 0.2 2.8 1.7
v 0.2 2.8 0.6
v 0.2 2.8 0.3
v 0.2 2.8 -0.2
v 0.2 2.8 -0.5
v 0.2 2.8 -1.6
v 0.2 2.8 -1.9
v 0.2 3 0.3
v 0.2 3 -0.2
v 0.2 3.2 0.6
v 0.2 3.2 0.5
v 0.2 3.2 -0.4
v 0.2 3.2 -0.5
v 0.2 3.7 0.6
v 0.2 3.7 0.5
v 0.2 3.7 -0.4
v 0.2 3.7 -0.5
v 0.2 3.8 0.4
v 0.2 3.8 -0.3
v 0.2 4 0.4
v 0.2 4 -0.3
v 0.6 0 0.6
v 0.6 0 0.2
v 0.6 0 -0.1
v 0.6 0 -0.5
v 0.6 0.3 0.6
v 0.6 0.3 0.2
v 0.6 0.3 -0.1
v 0.6 0.3 -0.5
v 0.6 1.1 0.6
v 0.6 1.1 0.2
v 0.6 1.1 -0.1
v 0.6 1.1 -0.5
v 0.6 1.4 0.6
v 0.6 1.4 0.2
v 0.6 1.4 -0.1
v 0.6 1.4 -0.5
v 0.6 2.5 2
v 0.6 2.5 1.7
v 0.6 2.5 0.6
v 0.6 2.5 -0.5
v 0.6 2.5 -1.6
v 0.6 2.5 -1.9
v 0.6 2.8 2
v 0.6 2.8 1.7
v 0.6 2.8 0.6
v 0.6 2.8 0.3
v 0.6 2.8 -0.2
v 0.6 2.8 -0.5
v 0.6 2.8 -1.6
v 0.6 2.8 -1.9
v 0.6 3 0.3
v 0.6 3 -0.2
v 0.6 3.2 0.6
v 0.6 3.2 0.5
v 0.6 3.2 -0.4
v 0.6 3.2 -0.5
v 0.6 3.7 0.6
v 0.6 3.7 0.5
v 0.6 3.7 -0.4
v 0.6 3.7 -0.5
v 0.6 3.9 0.4
v 0.6 3.9 -0.3
v 0.6 4 0.4
v 0.6 4 -0.3
v 0.7 1.4 0.6
v 0.7 1.4 -0.5
v 0.7 1.6 0.6
v 0.7 1.6 -0.5
v 0.7 2.8 0.6
v 0.7 2.8 -0.5
v 0.7 3 0.5
v 0.7 3 -0.4
v 0.7 3.1 0.4
v 0.7 3.1 -0.3
v 0.7 3.8 0.5
v 0.7 3.8 0.4
v 0.7 3.8 -0.3
v 0.7 3.8 -0.4
v 0.7 3.9 0.4
v 0.7 3.9 -0.3
v 0.8 3.1 0.4
v 0.8 3.1 -0.3
v 0.8 3.8 0.4
v 0.8 3.8 -0.3
v 0.2 2.5 2
v 0.2 2.8 2
v 0.6 2.5 2
v 0.6 2.8 2
v -0.2 0 0.6
v -0.2 0.2 0.6
v 0 1.4 0.6
v 0 1.6 0.6
v 0 2.5 0.6
v 0.1 0.2 0.6
v 0.1 0.3 0.6
v 0.1 1.1 0.6
v 0.1 1.4 0.6
v 0.1 2.5 0.6
v 0.1 2.7 0.6
v 0.2 0.3 0.6
v 0.2 1.1 0.6
v 0.2 2.5 0.6
v 0.2 2.7 0.6
v 0.2 3.2 0.6
v 0.2 3.7 0.6
v 0.6 0 0.6
v 0.6 0.3 0.6
v 0.6 1.1 0.6
v 0.6 1.4 0.6
v 0.6 2.5 0.6
v 0.6 2.8 0.6
v 0.6 3.2 0.6
v 0.6 3.7 0.6
v 0.7 1.4 0.6
v 0.7 1.6 0.6
v 0.7 2.8 0.6
v 0.1 3 0.5
v 0.1 3.8 0.5
v 0.2 3.2 0.5
v 0.2 3.7 0.5
v 0.6 3.2 0.5
v 0.6 3.7 0.5
v 0.7 3 0.5
v 0.7 3.8 0.5
v 0 3 0.4
v 0 3.5 0.4
v 0 3.6 0.4
v 0 3.7 0.4
v 0.1 3 0.4
v 0.1 3.5 0.4
v 0.1 3.6 0.4
v 0.1 3.7 0.4
v 0.2 3.8 0.4
v 0.2 4 0.4
v 0.6 3.9 0.4
v 0.6 4 0.4
v 0.7 3.1 0.4
v 0.7 3.8 0.4
v 0.7 3.9 0.4
v 0.8 3.1 0.4
v 0.8 3.8 0.4
v 0.2 2.8 0.3
v 0.2 3 0.3
v 0.3 3 0.3
v 0.6 2.8 0.3
v 0.6 3 0.3
v -0.1 3.2 0.0999999
v -0.1 3.4 0.0999999
v 0 3.2 0.0999999
v 0 3.4 0.0999999
v -0.2 0 -0.1
v -0.2 0.2 -0.1
v 0.1 0.2 -0.1
v 0.1 0.3 -0.1
v 0.1 1.1 -0.1
v 0.1 1.4 -0.1
v 0.2 0.3 -0.1
v 0.2 1.1 -0.1
v 0.6 0 -0.1
v 0.6 0.3 -0.1
v 0.6 1.1 -0.1
v 0.6 1.4 -0.1
v -0.2 0 0.2
v -0.2 0.2 0.2
v 0.1 0.2 0.2
v 0.1 0.3 0.2
v 0.1 1.1 0.2
v 0.1 1.4 0.2
v 0.2 0.3 0.2
v 0.2 1.1 0.2
v 0.6 0 0.2
v 0.6 0.3 0.2
v 0.6 1.1 0.2
v 0.6 1.4 0.2
v -0.1 3.2 -2.38419e-007
v -0.1 3.4 -2.38419e-007
v 0 3.2 -2.38419e-007
v 0 3.4 -2.38419e-007
v 0.2 2.8 -0.2
v 0.2 3 -0.2
v 0.6 2.8 -0.2
v 0.6 3 -0.2
v 0 3 -0.3
v 0 3.5 -0.3
v 0 3.6 -0.3
v 0 3.7 -0.3
v 0.1 3 -0.3
v 0.1 3.5 -0.3
v 0.1 3.6 -0.3
v 0.1 3.7 -0.3
v 0.2 3.8 -0.3
v 0.2 4 -0.3
v 0.6 3.9 -0.3
v 0.6 4 -0.3
v 0.7 3.1 -0.3
v 0.7 3.8 -0.3
v 0.7 3.9 -0.3
v 0.8 3.1 -0.3
v 0.8 3.8 -0.3
v 0.1 3 -0.4
v 0.1 3.8 -0.4
v 0.2 3.2 -0.4
v 0.2 3.7 -0.4
v 0.6 3.2 -0.4
v 0.6 3.7 -0.4
v 0.7 3 -0.4
v 0.7 3.8 -0.4
v -0.2 0 -0.5
v -0.2 0.2 -0.5
v 0 1.4 -0.5
v 0 1.6 -0.5
v 0 2.5 -0.5
v 0.1 0.2 -0.5
v 0.1 0.3 -0.5
v 0.1 1.1 -0.5
v 0.1 1.4 -0.5
v 0.1 2.5 -0.5
v 0.1 2.7 -0.5
v 0.2 0.3 -0.5
v 0.2 1.1 -0.5
v 0.2 2.5 -0.5
v 0.2 2.7 -0.5
v 0.2 3.2 -0.5
v 0.2 3.7 -0.5
v 0.6 0 -0.5
v 0.6 0.3 -0.5
v 0.6 1.1 -0.5
v 0.6 1.4 -0.5
v 0.6 2.5 -0.5
v 0.6 2.8 -0.5
v 0.6 3.2 -0.5
v 0.6 3.7 -0.5
v 0.7 1.4 -0.5
v 0.7 1.6 -0.5
v 0.7 2.8 -0.5
v 0.2 2.5 -1.9
v 0.2 2.8 -1.9
v 0.6 2.5 -1.9
v 0.6 2.8 -1.9
v -0.2 0 0.6
v 0.6 0 0.6
v -0.2 0 0.2
v 0.6 0 0.2
v -0.2 0 -0.1
v 0.6 0 -0.1
v -0.2 0 -0.5
v 0.6 0 -0.5
v 0.1 1.1 0.6
v 0.2 1.1 0.6
v 0.1 1.1 0.2
v 0.2 1.1 0.2
v 0.1 1.1 -0.1
v 0.2 1.1 -0.1
v 0.1 1.1 -0.5
v 0.2 1.1 -0.5
v 0 1.4 0.6
v 0.1 1.4 0.6
v 0.6 1.4 0.6
v 0.7 1.4 0.6
v 0.1 1.4 0.2
v 0.6 1.4 0.2
v 0.1 1.4 -0.1
v 0.6 1.4 -0.1
v 0 1.4 -0.5
v 0.1 1.4 -0.5
v 0.6 1.4 -0.5
v 0.7 1.4 -0.5
v 0.2 2.5 2
v 0.6 2.5 2
v 0.2 2.5 1.7
v 0.6 2.5 1.7
v 0.2 2.5 0.6
v 0.6 2.5 0.6
v 0.2 2.5 -0.5
v 0.6 2.5 -0.5
v 0.2 2.5 -1.6
v 0.6 2.5 -1.6
v 0.2 2.5 -1.9
v 0.6 2.5 -1.9
v 0.1 3 0.5
v 0.7 3 0.5
v 0 3 0.4
v 0.1 3 0.4
v 0.3 3 0.4
v 0.2 3 0.3
v 0.3 3 0.3
v 0.6 3 0.3
v 0.2 3 -0.2
v 0.6 3 -0.2
v 0 3 -0.3
v 0.1 3 -0.3
v 0.6 3 -0.3
v 0.1 3 -0.4
v 0.7 3 -0.4
v 0.7 3.1 0.4
v 0.8 3.1 0.4
v 0.7 3.1 -0.3
v 0.8 3.1 -0.3
v 0.2 3.2 0.6
v 0.6 3.2 0.6
v 0.2 3.2 0.5
v 0.6 3.2 0.5
v -0.1 3.2 0.0999999
v 0 3.2 0.0999999
v -0.1 3.2 -2.38419e-007
v 0 3.2 -2.38419e-007
v 0.2 3.2 -0.4
v 0.6 3.2 -0.4
v 0.2 3.2 -0.5
v 0.6 3.2 -0.5
v -0.2 0.2 0.6
v 0.1 0.2 0.6
v -0.2 0.2 0.2
v 0.1 0.2 0.2
v -0.2 0.2 -0.1
v 0.1 0.2 -0.1
v -0.2 0.2 -0.5
v 0.1 0.2 -0.5
v 0.1 0.3 0.6
v 0.2 0.3 0.6
v 0.1 0.3 0.2
v 0.2 0.3 0.2
v 0.1 0.3 -0.1
v 0.2 0.3 -0.1
v 0.1 0.3 -0.5
v 0.2 0.3 -0.5
v 0 2.5 0.6
v 0.1 2.5 0.6
v 0 2.5 0.3
v 0.1 2.5 0.3
v 0 2.5 -0.2
v 0.1 2.5 -0.2
v 0 2.5 -0.5
v 0.1 2.5 -0.5
v 0.1 2.7 0.6
v 0.2 2.7 0.6
v 0.1 2.7 0.3
v 0.2 2.7 0.3
v 0.1 2.7 -0.2
v 0.2 2.7 -0.2
v 0.1 2.7 -0.5
v 0.2 2.7 -0.5
v 0.2 2.8 2
v 0.6 2.8 2
v 0.2 2.8 1.7
v 0.6 2.8 1.7
v 0.2 2.8 0.6
v 0.6 2.8 0.6
v 0.7 2.8 0.6
v 0.2 2.8 0.3
v 0.6 2.8 0.3
v 0.2 2.8 -0.2
v 0.6 2.8 -0.2
v 0.2 2.8 -0.5
v 0.6 2.8 -0.5
v 0.7 2.8 -0.5
v 0.2 2.8 -1.6
v 0.6 2.8 -1.6
v 0.2 2.8 -1.9
v 0.6 2.8 -1.9
v -0.1 3.4 0.0999999
v 0 3.4 0.0999999
v -0.1 3.4 -2.38419e-007
v 0 3.4 -2.38419e-007
v 0.2 3.7 0.6
v 0.6 3.7 0.6
v 0.2 3.7 0.5
v 0.6 3.7 0.5
v 0 3.7 0.4
v 0.1 3.7 0.4
v 0 3.7 -0.3
v 0.1 3.7 -0.3
v 0.2 3.7 -0.4
v 0.6 3.7 -0.4
v 0.2 3.7 -0.5
v 0.6 3.7 -0.5
v 0.1 3.8 0.5
v 0.7 3.8 0.5
v 0.2 3.8 0.4
v 0.7 3.8 0.4
v 0.8 3.8 0.4
v 0.2 3.8 -0.3
v 0.7 3.8 -0.3
v 0.8 3.8 -0.3
v 0.1 3.8 -0.4
v 0.7 3.8 -0.4
v 0.6 3.9 0.4
v 0.7 3.9 0.4
v 0.6 3.9 -0.3
v 0.7 3.9 -0.3
v 0.2 4 0.4
v 0.6 4 0.4
v 0.2 4 -0.3
v 0.6 4 -0.3

# faces
f 5/3/1 2/3/1 1/3/1
f 6/3/1 2/3/1 5/3/1
f 7/3/1 4/3/1 3/3/1
f 8/3/1 4/3/1 7/3/1
f 11/2/1 10/2/1 9/2/1
f 12/2/1 10/2/1 11/2/1
f 15/4/1 14/4/1 13/4/1
f 16/4/1 14/4/1 15/4/1
f 17/5/1 16/5/1 15/5/1
f 18/5/1 16/5/1 17/5/1
f 19/5/1 17/5/1 15/5/1
f 20/8/1 18/8/1 17/8/1
f 20/5/1 17/5/1 19/5/1
f 21/5/1 16/5/1 18/5/1
f 21/8/1 18/8/1 20/8/1
f 22/5/1 16/5/1 21/5/1
f 23/5/1 19/5/1 15/5/1
f 24/8/1 20/8/1 19/8/1
f 24/5/1 19/5/1 23/5/1
f 24/8/1 21/8/1 20/8/1
f 24/8/1 22/8/1 21/8/1
f 25/5/1 16/5/1 22/5/1
f 25/8/1 22/8/1 24/8/1
f 26/5/1 16/5/1 25/5/1
f 27/5/1 23/5/1 15/5/1
f 28/8/1 24/8/1 23/8/1
f 28/5/1 23/5/1 27/5/1
f 28/8/1 25/8/1 24/8/1
f 28/8/1 26/8/1 25/8/1
f 29/5/1 16/5/1 26/5/1
f 29/8/1 26/8/1 28/8/1
f 30/5/1 16/5/1 29/5/1
f 33/2/1 32/2/1 31/2/1
f 34/2/1 32/2/1 33/2/1
f 35/1/1 34/1/1 33/1/1
f 36/1/1 34/1/1 35/1/1
f 37/1/1 34/1/1 36/1/1
f 38/1/1 34/1/1 37/1/1
f 39/2/1 33/2/1 31/2/1
f 39/1/1 35/1/1 33/1/1
f 40/2/1 36/2/1 35/2/1
f 40/1/1 35/1/1 39/1/1
f 41/1/1 34/1/1 38/1/1
f 41/2/1 38/2/1 37/2/1
f 42/2/1 32/2/1 34/2/1
f 42/1/1 34/1/1 41/1/1
f 43/2/1 40/2/1 39/2/1
f 43/2/1 39/2/1 31/2/1
f 44/2/1 36/2/1 40/2/1
f 44/2/1 40/2/1 43/2/1
f 45/2/1 36/2/1 44/2/1
f 46/2/1 41/2/1 37/2/1
f 46/2/1 42/2/1 41/2/1
f 47/2/1 42/2/1 46/2/1
f 48/2/1 32/2/1 42/2/1
f 48/2/1 42/2/1 47/2/1
f 49/2/1 43/2/1 31/2/1
f 50/9/1 44/9/1 43/9/1
f 50/2/1 43/2/1 49/2/1
f 51/2/1 45/2/1 44/2/1
f 51/9/1 44/9/1 50/9/1
f 51/2/1 47/2/1 46/2/1
f 51/2/1 46/2/1 45/2/1
f 52/2/1 47/2/1 51/2/1
f 53/2/1 47/2/1 52/2/1
f 54/9/1 48/9/1 47/9/1
f 54/2/1 47/2/1 53/2/1
f 55/2/1 32/2/1 48/2/1
f 55/9/1 48/9/1 54/9/1
f 56/2/1 32/2/1 55/2/1
f 57/6/1 50/6/1 49/6/1
f 57/6/1 51/6/1 50/6/1
f 57/6/1 52/6/1 51/6/1
f 58/2/1 53/2/1 52/2/1
f 58/6/1 52/6/1 57/6/1
f 59/6/1 54/6/1 53/6/1
f 59/2/1 53/2/1 58/2/1
f 59/6/1 56/6/1 55/6/1
f 59/6/1 55/6/1 54/6/1
f 60/6/1 56/6/1 59/6/1
f 61/2/1 58/2/1 57/2/1
f 61/2/1 59/2/1 58/2/1
f 61/2/1 60/2/1 59/2/1
f 62/2/1 60/2/1 61/2/1
f 67/3/1 64/3/1 63/3/1
f 68/3/1 64/3/1 67/3/1
f 69/3/1 66/3/1 65/3/1
f 70/3/1 66/3/1 69/3/1
f 75/4/1 72/4/1 71/4/1
f 76/4/1 72/4/1 75/4/1
f 77/4/1 74/4/1 73/4/1
f 78/4/1 74/4/1 77/4/1
f 83/5/1 80/5/1 79/5/1
f 84/8/1 81/8/1 80/8/1
f 84/5/1 80/5/1 83/5/1
f 85/5/1 82/5/1 81/5/1
f 85/8/1 81/8/1 84/8/1
f 86/5/1 82/5/1 85/5/1
f 91/7/1 88/7/1 87/7/1
f 92/7/1 90/7/1 89/7/1
f 93/7/1 91/7/1 87/7/1
f 94/7/1 90/7/1 92/7/1
f 95/7/1 93/7/1 87/7/1
f 96/7/1 90/7/1 94/7/1
f 97/7/1 95/7/1 87/7/1
f 97/7/1 96/7/1 95/7/1
f 98/7/1 90/7/1 96/7/1
f 98/7/1 96/7/1 97/7/1
f 103/2/1 100/2/1 99/2/1
f 104/2/1 100/2/1 103/2/1
f 105/2/1 102/2/1 101/2/1
f 106/2/1 102/2/1 105/2/1
f 113/8/1 109/8/1 108/8/1
f 116/8/1 111/8/1 110/8/1
f 117/2/1 108/2/1 107/2/1
f 118/8/1 113/8/1 108/8/1
f 118/2/1 108/2/1 117/2/1
f 119/5/1 114/5/1 113/5/1
f 119/8/1 113/8/1 118/8/1
f 120/8/1 115/8/1 114/8/1
f 120/5/1 114/5/1 119/5/1
f 121/5/1 116/5/1 115/5/1
f 121/8/1 115/8/1 120/8/1
f 122/8/1 111/8/1 116/8/1
f 122/5/1 116/5/1 121/5/1
f 123/2/1 112/2/1 111/2/1
f 123/8/1 111/8/1 122/8/1
f 124/2/1 112/2/1 123/2/1
f 125/2/1 121/2/1 120/2/1
f 126/2/1 121/2/1 125/2/1
f 131/7/1 128/7/1 127/7/1
f 132/7/1 128/7/1 131/7/1
f 133/7/1 130/7/1 129/7/1
f 134/7/1 130/7/1 133/7/1
f 137/7/1 136/7/1 135/7/1
f 138/7/1 136/7/1 137/7/1
f 139/3/2 140/3/2 143/3/2
f 143/3/2 140/3/2 144/3/2
f 141/3/2 142/3/2 145/3/2
f 145/3/2 142/3/2 146/3/2
f 143/2/2 144/2/2 147/2/2
f 147/2/2 144/2/2 148/2/2
f 145/2/2 146/2/2 149/2/2
f 149/2/2 146/2/2 150/2/2
f 147/4/2 148/4/2 151/4/2
f 151/4/2 148/4/2 152/4/2
f 149/4/2 150/4/2 153/4/2
f 153/4/2 150/4/2 154/4/2
f 155/2/2 156/2/2 161/2/2
f 156/8/2 157/8/2 162/8/2
f 161/2/2 156/2/2 162/2/2
f 162/8/2 157/8/2 163/8/2
f 158/8/2 159/8/2 166/8/2
f 159/2/2 160/2/2 167/2/2
f 166/8/2 159/8/2 167/8/2
f 167/2/2 160/2/2 168/2/2
f 164/2/2 165/2/2 169/2/2
f 169/2/2 165/2/2 170/2/2
f 171/7/2 172/7/2 175/7/2
f 175/7/2 172/7/2 176/7/2
f 173/7/2 174/7/2 177/7/2
f 177/7/2 174/7/2 178/7/2
f 179/7/2 180/7/2 181/7/2
f 181/7/2 180/7/2 182/7/2
f 183/4/2 184/4/2 185/4/2
f 185/4/2 184/4/2 186/4/2
f 185/5/2 186/5/2 187/5/2
f 187/5/2 186/5/2 188/5/2
f 189/7/2 190/7/2 191/7/2
f 191/7/2 190/7/2 192/7/2
f 189/7/2 191/7/2 193/7/2
f 193/7/2 191/7/2 194/7/2
f 192/7/2 190/7/2 195/7/2
f 195/7/2 190/7/2 196/7/2
f 194/7/2 195/7/2 197/7/2
f 197/7/2 195/7/2 198/7/2
f 199/7/2 200/7/2 201/7/2
f 201/7/2 200/7/2 202/7/2
f 205/2/3 204/2/3 203/2/3
f 206/2/3 204/2/3 205/2/3
f 212/3/3 208/3/3 207/3/3
f 215/4/3 210/4/3 209/4/3
f 216/5/3 211/5/3 210/5/3
f 218/3/3 213/3/3 212/3/3
f 219/4/3 215/4/3 214/4/3
f 220/5/3 217/5/3 216/5/3
f 220/5/3 216/5/3 210/5/3
f 221/5/3 217/5/3 220/5/3
f 224/3/3 218/3/3 212/3/3
f 224/3/3 212/3/3 207/3/3
f 225/2/3 219/2/3 218/2/3
f 225/3/3 218/3/3 224/3/3
f 226/4/3 215/4/3 219/4/3
f 226/2/3 219/2/3 225/2/3
f 227/4/3 210/4/3 215/4/3
f 227/4/3 215/4/3 226/4/3
f 228/5/3 220/5/3 210/5/3
f 230/7/3 223/7/3 222/7/3
f 231/7/3 223/7/3 230/7/3
f 232/4/3 210/4/3 227/4/3
f 233/5/3 229/5/3 228/5/3
f 233/4/3 210/4/3 232/4/3
f 233/5/3 228/5/3 210/5/3
f 234/5/3 229/5/3 233/5/3
f 237/7/3 236/7/3 235/7/3
f 238/7/3 236/7/3 237/7/3
f 239/7/3 237/7/3 235/7/3
f 240/7/3 236/7/3 238/7/3
f 241/7/3 239/7/3 235/7/3
f 241/7/3 240/7/3 239/7/3
f 242/7/3 236/7/3 240/7/3
f 242/7/3 240/7/3 241/7/3
f 247/2/3 244/2/3 243/2/3
f 248/6/3 245/6/3 244/6/3
f 248/2/3 244/2/3 247/2/3
f 249/2/3 246/2/3 245/2/3
f 249/6/3 245/6/3 248/6/3
f 250/2/3 246/2/3 249/2/3
f 253/7/3 252/7/3 251/7/3
f 254/7/3 252/7/3 253/7/3
f 256/7/3 253/7/3 251/7/3
f 257/7/3 253/7/3 256/7/3
f 258/7/3 256/7/3 255/7/3
f 259/7/3 256/7/3 258/7/3
f 262/2/3 261/2/3 260/2/3
f 263/2/3 262/2/3 260/2/3
f 264/2/3 262/2/3 263/2/3
f 267/2/3 266/2/3 265/2/3
f 268/2/3 266/2/3 267/2/3
f 271/3/3 270/3/3 269/3/3
f 275/3/3 272/3/3 271/3/3
f 276/4/3 274/4/3 273/4/3
f 277/3/3 271/3/3 269/3/3
f 277/3/3 275/3/3 271/3/3
f 278/2/3 276/2/3 275/2/3
f 278/3/3 275/3/3 277/3/3
f 279/4/3 274/4/3 276/4/3
f 279/2/3 276/2/3 278/2/3
f 280/4/3 274/4/3 279/4/3
f 281/3/4 282/3/4 283/3/4
f 283/3/4 284/3/4 287/3/4
f 285/4/4 286/4/4 288/4/4
f 281/3/4 283/3/4 289/3/4
f 283/3/4 287/3/4 289/3/4
f 287/2/4 288/2/4 290/2/4
f 289/3/4 287/3/4 290/3/4
f 288/4/4 286/4/4 291/4/4
f 290/2/4 288/2/4 291/2/4
f 291/4/4 286/4/4 292/4/4
f 293/2/4 294/2/4 295/2/4
f 295/2/4 294/2/4 296/2/4
f 297/2/4 298/2/4 299/2/4
f 299/2/4 298/2/4 300/2/4
f 301/2/4 302/2/4 305/2/4
f 302/6/4 303/6/4 306/6/4
f 305/2/4 302/2/4 306/2/4
f 303/2/4 304/2/4 307/2/4
f 306/6/4 303/6/4 307/6/4
f 307/2/4 304/2/4 308/2/4
f 309/7/4 310/7/4 311/7/4
f 311/7/4 310/7/4 312/7/4
f 309/7/4 311/7/4 314/7/4
f 314/7/4 311/7/4 315/7/4
f 313/7/4 314/7/4 316/7/4
f 316/7/4 314/7/4 317/7/4
f 318/7/4 319/7/4 320/7/4
f 320/7/4 319/7/4 321/7/4
f 318/7/4 320/7/4 322/7/4
f 321/7/4 319/7/4 323/7/4
f 318/7/4 322/7/4 324/7/4
f 322/7/4 323/7/4 324/7/4
f 323/7/4 319/7/4 325/7/4
f 324/7/4 323/7/4 325/7/4
f 326/3/4 327/3/4 331/3/4
f 328/4/4 329/4/4 334/4/4
f 329/5/4 330/5/4 335/5/4
f 331/3/4 332/3/4 337/3/4
f 333/4/4 334/4/4 338/4/4
f 335/5/4 336/5/4 339/5/4
f 329/5/4 335/5/4 339/5/4
f 339/5/4 336/5/4 340/5/4
f 331/3/4 337/3/4 343/3/4
f 326/3/4 331/3/4 343/3/4
f 337/2/4 338/2/4 344/2/4
f 343/3/4 337/3/4 344/3/4
f 338/4/4 334/4/4 345/4/4
f 344/2/4 338/2/4 345/2/4
f 334/4/4 329/4/4 346/4/4
f 345/4/4 334/4/4 346/4/4
f 329/5/4 339/5/4 347/5/4
f 341/7/4 342/7/4 349/7/4
f 349/7/4 342/7/4 350/7/4
f 346/4/4 329/4/4 351/4/4
f 347/5/4 348/5/4 352/5/4
f 351/4/4 329/4/4 352/4/4
f 329/5/4 347/5/4 352/5/4
f 352/5/4 348/5/4 353/5/4
f 354/2/4 355/2/4 356/2/4
f 356/2/4 355/2/4 357/2/4
f 360/3/5 359/3/5 358/3/5
f 361/3/5 359/3/5 360/3/5
f 364/3/5 363/3/5 362/3/5
f 365/3/5 363/3/5 364/3/5
f 368/4/5 367/4/5 366/4/5
f 369/4/5 367/4/5 368/4/5
f 372/4/5 371/4/5 370/4/5
f 373/4/5 371/4/5 372/4/5
f 378/4/5 375/4/5 374/4/5
f 379/4/5 377/4/5 376/4/5
f 380/4/5 378/4/5 374/4/5
f 380/4/5 379/4/5 378/4/5
f 381/4/5 377/4/5 379/4/5
f 381/4/5 379/4/5 380/4/5
f 382/4/5 380/4/5 374/4/5
f 383/4/5 380/4/5 382/4/5
f 384/4/5 377/4/5 381/4/5
f 385/4/5 377/4/5 384/4/5
f 388/2/5 387/2/5 386/2/5
f 389/2/5 387/2/5 388/2/5
f 390/8/5 389/8/5 388/8/5
f 391/8/5 389/8/5 390/8/5
f 394/8/5 393/8/5 392/8/5
f 395/8/5 393/8/5 394/8/5
f 396/2/5 395/2/5 394/2/5
f 397/2/5 395/2/5 396/2/5
f 401/7/5 399/7/5 398/7/5
f 402/7/5 399/7/5 401/7/5
f 403/2/5 401/2/5 400/2/5
f 403/2/5 402/2/5 401/2/5
f 404/7/5 399/7/5 402/7/5
f 404/2/5 402/2/5 403/2/5
f 405/7/5 399/7/5 404/7/5
f 406/2/5 403/2/5 400/2/5
f 407/7/5 399/7/5 405/7/5
f 408/2/5 406/2/5 400/2/5
f 408/2/5 407/2/5 406/2/5
f 409/2/5 407/2/5 408/2/5
f 410/7/5 399/7/5 407/7/5
f 410/2/5 407/2/5 409/2/5
f 411/7/5 410/7/5 409/7/5
f 412/7/5 399/7/5 410/7/5
f 412/7/5 410/7/5 411/7/5
f 415/7/5 414/7/5 413/7/5
f 416/7/5 414/7/5 415/7/5
f 419/7/5 418/7/5 417/7/5
f 420/7/5 418/7/5 419/7/5
f 423/2/5 422/2/5 421/2/5
f 424/2/5 422/2/5 423/2/5
f 427/7/5 426/7/5 425/7/5
f 428/7/5 426/7/5 427/7/5
f 429/3/6 430/3/6 431/3/6
f 431/3/6 430/3/6 432/3/6
f 433/3/6 434/3/6 435/3/6
f 435/3/6 434/3/6 436/3/6
f 437/3/6 438/3/6 439/3/6
f 439/3/6 438/3/6 440/3/6
f 441/3/6 442/3/6 443/3/6
f 443/3/6 442/3/6 444/3/6
f 445/5/6 446/5/6 447/5/6
f 447/5/6 446/5/6 448/5/6
f 447/8/6 448/8/6 449/8/6
f 449/8/6 448/8/6 450/8/6
f 449/5/6 450/5/6 451/5/6
f 451/5/6 450/5/6 452/5/6
f 453/5/6 454/5/6 455/5/6
f 455/5/6 454/5/6 456/5/6
f 455/8/6 456/8/6 457/8/6
f 457/8/6 456/8/6 458/8/6
f 457/5/6 458/5/6 459/5/6
f 459/5/6 458/5/6 460/5/6
f 461/2/6 462/2/6 463/2/6
f 463/2/6 462/2/6 464/2/6
f 463/8/6 464/8/6 465/8/6
f 465/8/6 464/8/6 466/8/6
f 465/5/6 466/5/6 468/5/6
f 466/5/6 467/5/6 468/5/6
f 468/5/6 467/5/6 469/5/6
f 469/5/6 467/5/6 471/5/6
f 470/5/6 471/5/6 472/5/6
f 471/5/6 467/5/6 473/5/6
f 472/5/6 471/5/6 473/5/6
f 473/5/6 467/5/6 474/5/6
f 472/8/6 473/8/6 475/8/6
f 475/8/6 473/8/6 476/8/6
f 475/2/6 476/2/6 477/2/6
f 477/2/6 476/2/6 478/2/6
f 479/2/6 480/2/6 481/2/6
f 481/2/6 480/2/6 482/2/6
f 483/7/6 484/7/6 485/7/6
f 485/7/6 484/7/6 486/7/6
f 487/2/6 488/2/6 489/2/6
f 489/2/6 488/2/6 490/2/6
f 491/7/6 492/7/6 493/7/6
f 493/7/6 492/7/6 494/7/6
f 495/7/6 496/7/6 497/7/6
f 497/7/6 496/7/6 498/7/6
f 495/7/6 497/7/6 500/7/6
f 498/7/6 499/7/6 501/7/6
f 501/7/6 499/7/6 502/7/6
f 495/7/6 500/7/6 503/7/6
f 500/7/6 501/7/6 503/7/6
f 503/7/6 501/7/6 504/7/6
f 505/7/6 506/7/6 507/7/6
f 507/7/6 506/7/6 508/7/6
f 509/7/6 510/7/6 511/7/6
f 511/7/6 510/7/6 512/7/6
