# MagicaVoxel @ Ephtracy

# group
o 

# material
mtllib jose_green.mtl
usemtl palette

# normals
vn -1 0 0
vn 1 0 0
vn 0 0 1
vn 0 0 -1
vn 0 -1 0
vn 0 1 0

# texcoords
vt 0.150391 0.5
vt 0.216797 0.5
vt 0.310547 0.5
vt 0.591797 0.5
vt 0.595703 0.5
vt 0.619141 0.5
vt 0.994141 0.5

# verts
v -0.2 0 0.6
v -0.2 0 0.2
v -0.2 0 -0.1
v -0.2 0 -0.5
v -0.2 0.2 0.6
v -0.2 0.2 0.2
v -0.2 0.2 -0.1
v -0.2 0.2 -0.5
v -0.1 3.2 0.0999999
v -0.1 3.2 -2.38419e-007
v -0.1 3.4 0.0999999
v -0.1 3.4 -2.38419e-007
v 0 1.4 0.6
v 0 1.4 -0.5
v 0 1.6 0.6
v 0 1.6 -0.5
v 0 1.9 0.0999999
v 0 1.9 -2.38419e-007
v 0 2.2 0.2
v 0 2.2 0.0999999
v 0 2.2 -2.38419e-007
v 0 2.2 -0.1
v 0 2.4 0.3
v 0 2.4 0.2
v 0 2.4 -0.1
v 0 2.4 -0.2
v 0 2.5 0.6
v 0 2.5 0.3
v 0 2.5 -0.2
v 0 2.5 -0.5
v 0 3 0.4
v 0 3 -0.3
v 0 3.1 0.3
v 0 3.1 -0.2
v 0 3.2 0.2
v 0 3.2 0.0999999
v 0 3.2 -2.38419e-007
v 0 3.2 -0.1
v 0 3.3 0.3
v 0 3.3 0.2
v 0 3.3 -0.1
v 0 3.3 -0.2
v 0 3.4 0.3
v 0 3.4 0.2
v 0 3.4 0.0999999
v 0 3.4 -2.38419e-007
v 0 3.4 -0.1
v 0 3.4 -0.2
v 0 3.5 0.4
v 0 3.5 0.3
v 0 3.5 0.2
v 0 3.5 0.0999999
v 0 3.5 -2.38419e-007
v 0 3.5 -0.1
v 0 3.5 -0.2
v 0 3.5 -0.3
v 0 3.6 0.4
v 0 3.6 0.0999999
v 0 3.6 -2.38419e-007
v 0 3.6 -0.3
v 0 3.7 0.4
v 0 3.7 -0.3
v 0.1 0.2 0.6
v 0.1 0.2 0.2
v 0.1 0.2 -0.1
v 0.1 0.2 -0.5
v 0.1 0.3 0.6
v 0.1 0.3 0.2
v 0.1 0.3 -0.1
v 0.1 0.3 -0.5
v 0.1 1.1 0.6
v 0.1 1.1 0.2
v 0.1 1.1 -0.1
v 0.1 1.1 -0.5
v 0.1 1.4 0.6
v 0.1 1.4 0.2
v 0.1 1.4 -0.1
v 0.1 1.4 -0.5
v 0.1 2.5 0.6
v 0.1 2.5 0.3
v 0.1 2.5 -0.2
v 0.1 2.5 -0.5
v 0.1 2.7 0.6
v 0.1 2.7 0.3
v 0.1 2.7 -0.2
v 0.1 2.7 -0.5
v 0.1 3 0.5
v 0.1 3 0.4
v 0.1 3 -0.3
v 0.1 3 -0.4
v 0.1 3.5 0.4
v 0.1 3.5 -0.3
v 0.1 3.6 0.4
v 0.1 3.6 -0.3
v 0.1 3.7 0.4
v 0.1 3.7 -0.3
v 0.1 3.8 0.5
v 0.1 3.8 -0.4
v 0.2 0.3 0.6
v 0.2 0.3 0.2
v 0.2 0.3 -0.1
v 0.2 0.3 -0.5
v 0.2 1.1 0.6
v 0.2 1.1 0.2
v 0.2 1.1 -0.1
v 0.2 1.1 -0.5
v 0.2 2.5 2
v 0.2 2.5 1.7
v 0.2 2.5 0.6
v 0.2 2.5 -0.5
v 0.2 2.5 -1.6
v 0.2 2.5 -1.9
v 0.2 2.7 0.6
v 0.2 2.7 0.3
v 0.2 2.7 -0.2
v 0.2 2.7 -0.5
v 0.2 2.8 2
v 0.2 2.8 1.7
v 0.2 2.8 0.6
v 0.2 2.8 0.3
v 0.2 2.8 -0.2
v 0.2 2.8 -0.5
v 0.2 2.8 -1.6
v 0.2 2.8 -1.9
v 0.2 3 0.3
v 0.2 3 -0.2
v 0.2 3.2 0.6
v 0.2 3.2 0.5
v 0.2 3.2 -0.4
v 0.2 3.2 -0.5
v 0.2 3.7 0.6
v 0.2 3.7 0.5
v 0.2 3.7 -0.4
v 0.2 3.7 -0.5
v 0.2 3.8 0.4
v 0.2 3.8 -0.3
v 0.2 4 0.4
v 0.2 4 -0.3
v 0.6 0 0.6
v 0.6 0 0.2
v 0.6 0 -0.1
v 0.6 0 -0.5
v 0.6 0.3 0.6
v 0.6 0.3 0.2
v 0.6 0.3 -0.1
v 0.6 0.3 -0.5
v 0.6 1.1 0.6
v 0.6 1.1 0.2
v 0.6 1.1 -0.1
v 0.6 1.1 -0.5
v 0.6 1.4 0.6
v 0.6 1.4 0.2
v 0.6 1.4 -0.1
v 0.6 1.4 -0.5
v 0.6 2.5 2
v 0.6 2.5 1.7
v 0.6 2.5 0.6
v 0.6 2.5 -0.5
v 0.6 2.5 -1.6
v 0.6 2.5 -1.9
v 0.6 2.8 2
v 0.6 2.8 1.7
v 0.6 2.8 0.6
v 0.6 2.8 0.3
v 0.6 2.8 -0.2
v 0.6 2.8 -0.5
v 0.6 2.8 -1.6
v 0.6 2.8 -1.9
v 0.6 3 0.3
v 0.6 3 -0.2
v 0.6 3.2 0.6
v 0.6 3.2 0.5
v 0.6 3.2 -0.4
v 0.6 3.2 -0.5
v 0.6 3.7 0.6
v 0.6 3.7 0.5
v 0.6 3.7 -0.4
v 0.6 3.7 -0.5
v 0.6 3.9 0.4
v 0.6 3.9 -0.3
v 0.6 4 0.4
v 0.6 4 -0.3
v 0.7 1.4 0.6
v 0.7 1.4 -0.5
v 0.7 1.6 0.6
v 0.7 1.6 -0.5
v 0.7 2.8 0.6
v 0.7 2.8 -0.5
v 0.7 3 0.5
v 0.7 3 -0.4
v 0.7 3.1 0.4
v 0.7 3.1 -0.3
v 0.7 3.8 0.5
v 0.7 3.8 0.4
v 0.7 3.8 -0.3
v 0.7 3.8 -0.4
v 0.7 3.9 0.4
v 0.7 3.9 -0.3
v 0.8 3.1 0.4
v 0.8 3.1 -0.3
v 0.8 3.8 0.4
v 0.8 3.8 -0.3
v 0.2 2.5 2
v 0.2 2.8 2
v 0.6 2.5 2
v 0.6 2.8 2
v -0.2 0 0.6
v -0.2 0.2 0.6
v 0 1.4 0.6
v 0 1.6 0.6
v 0 2.5 0.6
v 0.1 0.2 0.6
v 0.1 0.3 0.6
v 0.1 1.1 0.6
v 0.1 1.4 0.6
v 0.1 2.5 0.6
v 0.1 2.7 0.6
v 0.2 0.3 0.6
v 0.2 1.1 0.6
v 0.2 2.5 0.6
v 0.2 2.7 0.6
v 0.2 3.2 0.6
v 0.2 3.7 0.6
v 0.6 0 0.6
v 0.6 0.3 0.6
v 0.6 1.1 0.6
v 0.6 1.4 0.6
v 0.6 2.5 0.6
v 0.6 2.8 0.6
v 0.6 3.2 0.6
v 0.6 3.7 0.6
v 0.7 1.4 0.6
v 0.7 1.6 0.6
v 0.7 2.8 0.6
v 0.1 3 0.5
v 0.1 3.8 0.5
v 0.2 3.2 0.5
v 0.2 3.7 0.5
v 0.6 3.2 0.5
v 0.6 3.7 0.5
v 0.7 3 0.5
v 0.7 3.8 0.5
v 0 3 0.4
v 0 3.5 0.4
v 0 3.6 0.4
v 0 3.7 0.4
v 0.1 3 0.4
v 0.1 3.5 0.4
v 0.1 3.6 0.4
v 0.1 3.7 0.4
v 0.2 3.8 0.4
v 0.2 4 0.4
v 0.6 3.9 0.4
v 0.6 4 0.4
v 0.7 3.1 0.4
v 0.7 3.8 0.4
v 0.7 3.9 0.4
v 0.8 3.1 0.4
v 0.8 3.8 0.4
v 0.2 2.8 0.3
v 0.2 3 0.3
v 0.3 3 0.3
v 0.6 2.8 0.3
v 0.6 3 0.3
v -0.1 3.2 0.0999999
v -0.1 3.4 0.0999999
v 0 3.2 0.0999999
v 0 3.4 0.0999999
v -0.2 0 -0.1
v -0.2 0.2 -0.1
v 0.1 0.2 -0.1
v 0.1 0.3 -0.1
v 0.1 1.1 -0.1
v 0.1 1.4 -0.1
v 0.2 0.3 -0.1
v 0.2 1.1 -0.1
v 0.6 0 -0.1
v 0.6 0.3 -0.1
v 0.6 1.1 -0.1
v 0.6 1.4 -0.1
v -0.2 0 0.2
v -0.2 0.2 0.2
v 0.1 0.2 0.2
v 0.1 0.3 0.2
v 0.1 1.1 0.2
v 0.1 1.4 0.2
v 0.2 0.3 0.2
v 0.2 1.1 0.2
v 0.6 0 0.2
v 0.6 0.3 0.2
v 0.6 1.1 0.2
v 0.6 1.4 0.2
v -0.1 3.2 -2.38419e-007
v -0.1 3.4 -2.38419e-007
v 0 3.2 -2.38419e-007
v 0 3.4 -2.38419e-007
v 0.2 2.8 -0.2
v 0.2 3 -0.2
v 0.6 2.8 -0.2
v 0.6 3 -0.2
v 0 3 -0.3
v 0 3.5 -0.3
v 0 3.6 -0.3
v 0 3.7 -0.3
v 0.1 3 -0.3
v 0.1 3.5 -0.3
v 0.1 3.6 -0.3
v 0.1 3.7 -0.3
v 0.2 3.8 -0.3
v 0.2 4 -0.3
v 0.6 3.9 -0.3
v 0.6 4 -0.3
v 0.7 3.1 -0.3
v 0.7 3.8 -0.3
v 0.7 3.9 -0.3
v 0.8 3.1 -0.3
v 0.8 3.8 -0.3
v 0.1 3 -0.4
v 0.1 3.8 -0.4
v 0.2 3.2 -0.4
v 0.2 3.7 -0.4
v 0.6 3.2 -0.4
v 0.6 3.7 -0.4
v 0.7 3 -0.4
v 0.7 3.8 -0.4
v -0.2 0 -0.5
v -0.2 0.2 -0.5
v 0 1.4 -0.5
v 0 1.6 -0.5
v 0 2.5 -0.5
v 0.1 0.2 -0.5
v 0.1 0.3 -0.5
v 0.1 1.1 -0.5
v 0.1 1.4 -0.5
v 0.1 2.5 -0.5
v 0.1 2.7 -0.5
v 0.2 0.3 -0.5
v 0.2 1.1 -0.5
v 0.2 2.5 -0.5
v 0.2 2.7 -0.5
v 0.2 3.2 -0.5
v 0.2 3.7 -0.5
v 0.6 0 -0.5
v 0.6 0.3 -0.5
v 0.6 1.1 -0.5
v 0.6 1.4 -0.5
v 0.6 2.5 -0.5
v 0.6 2.8 -0.5
v 0.6 3.2 -0.5
v 0.6 3.7 -0.5
v 0.7 1.4 -0.5
v 0.7 1.6 -0.5
v 0.7 2.8 -0.5
v 0.2 2.5 -1.9
v 0.2 2.8 -1.9
v 0.6 2.5 -1.9
v 0.6 2.8 -1.9
v -0.2 0 0.6
v 0.6 0 0.6
v -0.2 0 0.2
v 0.6 0 0.2
v -0.2 0 -0.1
v 0.6 0 -0.1
v -0.2 0 -0.5
v 0.6 0 -0.5
v 0.1 1.1 0.6
v 0.2 1.1 0.6
v 0.1 1.1 0.2
v 0.2 1.1 0.2
v 0.1 1.1 -0.1
v 0.2 1.1 -0.1
v 0.1 1.1 -0.5
v 0.2 1.1 -0.5
v 0 1.4 0.6
v 0.1 1.4 0.6
v 0.6 1.4 0.6
v 0.7 1.4 0.6
v 0.1 1.4 0.2
v 0.6 1.4 0.2
v 0.1 1.4 -0.1
v 0.6 1.4 -0.1
v 0 1.4 -0.5
v 0.1 1.4 -0.5
v 0.6 1.4 -0.5
v 0.7 1.4 -0.5
v 0.2 2.5 2
v 0.6 2.5 2
v 0.2 2.5 1.7
v 0.6 2.5 1.7
v 0.2 2.5 0.6
v 0.6 2.5 0.6
v 0.2 2.5 -0.5
v 0.6 2.5 -0.5
v 0.2 2.5 -1.6
v 0.6 2.5 -1.6
v 0.2 2.5 -1.9
v 0.6 2.5 -1.9
v 0.1 3 0.5
v 0.7 3 0.5
v 0 3 0.4
v 0.1 3 0.4
v 0.3 3 0.4
v 0.2 3 0.3
v 0.3 3 0.3
v 0.6 3 0.3
v 0.2 3 -0.2
v 0.6 3 -0.2
v 0 3 -0.3
v 0.1 3 -0.3
v 0.6 3 -0.3
v 0.1 3 -0.4
v 0.7 3 -0.4
v 0.7 3.1 0.4
v 0.8 3.1 0.4
v 0.7 3.1 -0.3
v 0.8 3.1 -0.3
v 0.2 3.2 0.6
v 0.6 3.2 0.6
v 0.2 3.2 0.5
v 0.6 3.2 0.5
v -0.1 3.2 0.0999999
v 0 3.2 0.0999999
v -0.1 3.2 -2.38419e-007
v 0 3.2 -2.38419e-007
v 0.2 3.2 -0.4
v 0.6 3.2 -0.4
v 0.2 3.2 -0.5
v 0.6 3.2 -0.5
v -0.2 0.2 0.6
v 0.1 0.2 0.6
v -0.2 0.2 0.2
v 0.1 0.2 0.2
v -0.2 0.2 -0.1
v 0.1 0.2 -0.1
v -0.2 0.2 -0.5
v 0.1 0.2 -0.5
v 0.1 0.3 0.6
v 0.2 0.3 0.6
v 0.1 0.3 0.2
v 0.2 0.3 0.2
v 0.1 0.3 -0.1
v 0.2 0.3 -0.1
v 0.1 0.3 -0.5
v 0.2 0.3 -0.5
v 0 2.5 0.6
v 0.1 2.5 0.6
v 0 2.5 0.3
v 0.1 2.5 0.3
v 0 2.5 -0.2
v 0.1 2.5 -0.2
v 0 2.5 -0.5
v 0.1 2.5 -0.5
v 0.1 2.7 0.6
v 0.2 2.7 0.6
v 0.1 2.7 0.3
v 0.2 2.7 0.3
v 0.1 2.7 -0.2
v 0.2 2.7 -0.2
v 0.1 2.7 -0.5
v 0.2 2.7 -0.5
v 0.2 2.8 2
v 0.6 2.8 2
v 0.2 2.8 1.7
v 0.6 2.8 1.7
v 0.2 2.8 0.6
v 0.6 2.8 0.6
v 0.7 2.8 0.6
v 0.2 2.8 0.3
v 0.6 2.8 0.3
v 0.2 2.8 -0.2
v 0.6 2.8 -0.2
v 0.2 2.8 -0.5
v 0.6 2.8 -0.5
v 0.7 2.8 -0.5
v 0.2 2.8 -1.6
v 0.6 2.8 -1.6
v 0.2 2.8 -1.9
v 0.6 2.8 -1.9
v -0.1 3.4 0.0999999
v 0 3.4 0.0999999
v -0.1 3.4 -2.38419e-007
v 0 3.4 -2.38419e-007
v 0.2 3.7 0.6
v 0.6 3.7 0.6
v 0.2 3.7 0.5
v 0.6 3.7 0.5
v 0 3.7 0.4
v 0.1 3.7 0.4
v 0 3.7 -0.3
v 0.1 3.7 -0.3
v 0.2 3.7 -0.4
v 0.6 3.7 -0.4
v 0.2 3.7 -0.5
v 0.6 3.7 -0.5
v 0.1 3.8 0.5
v 0.7 3.8 0.5
v 0.2 3.8 0.4
v 0.7 3.8 0.4
v 0.8 3.8 0.4
v 0.2 3.8 -0.3
v 0.7 3.8 -0.3
v 0.8 3.8 -0.3
v 0.1 3.8 -0.4
v 0.7 3.8 -0.4
v 0.6 3.9 0.4
v 0.7 3.9 0.4
v 0.6 3.9 -0.3
v 0.7 3.9 -0.3
v 0.2 4 0.4
v 0.6 4 0.4
v 0.2 4 -0.3
v 0.6 4 -0.3

# faces
f 5/3/1 2/3/1 1/3/1
f 6/3/1 2/3/1 5/3/1
f 7/3/1 4/3/1 3/3/1
f 8/3/1 4/3/1 7/3/1
f 11/2/1 10/2/1 9/2/1
f 12/2/1 10/2/1 11/2/1
f 15/5/1 14/5/1 13/5/1
f 16/5/1 14/5/1 15/5/1
f 17/4/1 16/4/1 15/4/1
f 18/4/1 16/4/1 17/4/1
f 19/4/1 17/4/1 15/4/1
f 20/6/1 18/6/1 17/6/1
f 20/4/1 17/4/1 19/4/1
f 21/4/1 16/4/1 18/4/1
f 21/6/1 18/6/1 20/6/1
f 22/4/1 16/4/1 21/4/1
f 23/4/1 19/4/1 15/4/1
f 24/6/1 20/6/1 19/6/1
f 24/4/1 19/4/1 23/4/1
f 24/6/1 21/6/1 20/6/1
f 24/6/1 22/6/1 21/6/1
f 25/4/1 16/4/1 22/4/1
f 25/6/1 22/6/1 24/6/1
f 26/4/1 16/4/1 25/4/1
f 27/4/1 23/4/1 15/4/1
f 28/6/1 24/6/1 23/6/1
f 28/4/1 23/4/1 27/4/1
f 28/6/1 25/6/1 24/6/1
f 28/6/1 26/6/1 25/6/1
f 29/4/1 16/4/1 26/4/1
f 29/6/1 26/6/1 28/6/1
f 30/4/1 16/4/1 29/4/1
f 33/2/1 32/2/1 31/2/1
f 34/2/1 32/2/1 33/2/1
f 35/1/1 34/1/1 33/1/1
f 36/1/1 34/1/1 35/1/1
f 37/1/1 34/1/1 36/1/1
f 38/1/1 34/1/1 37/1/1
f 39/2/1 33/2/1 31/2/1
f 39/1/1 35/1/1 33/1/1
f 40/2/1 36/2/1 35/2/1
f 40/1/1 35/1/1 39/1/1
f 41/1/1 34/1/1 38/1/1
f 41/2/1 38/2/1 37/2/1
f 42/2/1 32/2/1 34/2/1
f 42/1/1 34/1/1 41/1/1
f 43/2/1 40/2/1 39/2/1
f 43/2/1 39/2/1 31/2/1
f 44/2/1 36/2/1 40/2/1
f 44/2/1 40/2/1 43/2/1
f 45/2/1 36/2/1 44/2/1
f 46/2/1 41/2/1 37/2/1
f 46/2/1 42/2/1 41/2/1
f 47/2/1 42/2/1 46/2/1
f 48/2/1 32/2/1 42/2/1
f 48/2/1 42/2/1 47/2/1
f 49/2/1 43/2/1 31/2/1
f 50/7/1 44/7/1 43/7/1
f 50/2/1 43/2/1 49/2/1
f 51/2/1 45/2/1 44/2/1
f 51/7/1 44/7/1 50/7/1
f 51/2/1 47/2/1 46/2/1
f 51/2/1 46/2/1 45/2/1
f 52/2/1 47/2/1 51/2/1
f 53/2/1 47/2/1 52/2/1
f 54/7/1 48/7/1 47/7/1
f 54/2/1 47/2/1 53/2/1
f 55/2/1 32/2/1 48/2/1
f 55/7/1 48/7/1 54/7/1
f 56/2/1 32/2/1 55/2/1
f 57/3/1 50/3/1 49/3/1
f 57/3/1 51/3/1 50/3/1
f 57/3/1 52/3/1 51/3/1
f 58/2/1 53/2/1 52/2/1
f 58/3/1 52/3/1 57/3/1
f 59/3/1 54/3/1 53/3/1
f 59/2/1 53/2/1 58/2/1
f 59/3/1 56/3/1 55/3/1
f 59/3/1 55/3/1 54/3/1
f 60/3/1 56/3/1 59/3/1
f 61/2/1 58/2/1 57/2/1
f 61/2/1 59/2/1 58/2/1
f 61/2/1 60/2/1 59/2/1
f 62/2/1 60/2/1 61/2/1
f 67/3/1 64/3/1 63/3/1
f 68/3/1 64/3/1 67/3/1
f 69/3/1 66/3/1 65/3/1
f 70/3/1 66/3/1 69/3/1
f 75/5/1 72/5/1 71/5/1
f 76/5/1 72/5/1 75/5/1
f 77/5/1 74/5/1 73/5/1
f 78/5/1 74/5/1 77/5/1
f 83/4/1 80/4/1 79/4/1
f 84/6/1 81/6/1 80/6/1
f 84/4/1 80/4/1 83/4/1
f 85/4/1 82/4/1 81/4/1
f 85/6/1 81/6/1 84/6/1
f 86/4/1 82/4/1 85/4/1
f 91/3/1 88/3/1 87/3/1
f 92/3/1 90/3/1 89/3/1
f 93/3/1 91/3/1 87/3/1
f 94/3/1 90/3/1 92/3/1
f 95/3/1 93/3/1 87/3/1
f 96/3/1 90/3/1 94/3/1
f 97/3/1 95/3/1 87/3/1
f 97/3/1 96/3/1 95/3/1
f 98/3/1 90/3/1 96/3/1
f 98/3/1 96/3/1 97/3/1
f 103/2/1 100/2/1 99/2/1
f 104/2/1 100/2/1 103/2/1
f 105/2/1 102/2/1 101/2/1
f 106/2/1 102/2/1 105/2/1
f 113/6/1 109/6/1 108/6/1
f 116/6/1 111/6/1 110/6/1
f 117/2/1 108/2/1 107/2/1
f 118/6/1 113/6/1 108/6/1
f 118/2/1 108/2/1 117/2/1
f 119/4/1 114/4/1 113/4/1
f 119/6/1 113/6/1 118/6/1
f 120/6/1 115/6/1 114/6/1
f 120/4/1 114/4/1 119/4/1
f 121/4/1 116/4/1 115/4/1
f 121/6/1 115/6/1 120/6/1
f 122/6/1 111/6/1 116/6/1
f 122/4/1 116/4/1 121/4/1
f 123/2/1 112/2/1 111/2/1
f 123/6/1 111/6/1 122/6/1
f 124/2/1 112/2/1 123/2/1
f 125/2/1 121/2/1 120/2/1
f 126/2/1 121/2/1 125/2/1
f 131/3/1 128/3/1 127/3/1
f 132/3/1 128/3/1 131/3/1
f 133/3/1 130/3/1 129/3/1
f 134/3/1 130/3/1 133/3/1
f 137/3/1 136/3/1 135/3/1
f 138/3/1 136/3/1 137/3/1
f 139/3/2 140/3/2 143/3/2
f 143/3/2 140/3/2 144/3/2
f 141/3/2 142/3/2 145/3/2
f 145/3/2 142/3/2 146/3/2
f 143/2/2 144/2/2 147/2/2
f 147/2/2 144/2/2 148/2/2
f 145/2/2 146/2/2 149/2/2
f 149/2/2 146/2/2 150/2/2
f 147/5/2 148/5/2 151/5/2
f 151/5/2 148/5/2 152/5/2
f 149/5/2 150/5/2 153/5/2
f 153/5/2 150/5/2 154/5/2
f 155/2/2 156/2/2 161/2/2
f 156/6/2 157/6/2 162/6/2
f 161/2/2 156/2/2 162/2/2
f 162/6/2 157/6/2 163/6/2
f 158/6/2 159/6/2 166/6/2
f 159/2/2 160/2/2 167/2/2
f 166/6/2 159/6/2 167/6/2
f 167/2/2 160/2/2 168/2/2
f 164/2/2 165/2/2 169/2/2
f 169/2/2 165/2/2 170/2/2
f 171/3/2 172/3/2 175/3/2
f 175/3/2 172/3/2 176/3/2
f 173/3/2 174/3/2 177/3/2
f 177/3/2 174/3/2 178/3/2
f 179/3/2 180/3/2 181/3/2
f 181/3/2 180/3/2 182/3/2
f 183/5/2 184/5/2 185/5/2
f 185/5/2 184/5/2 186/5/2
f 185/4/2 186/4/2 187/4/2
f 187/4/2 186/4/2 188/4/2
f 189/3/2 190/3/2 191/3/2
f 191/3/2 190/3/2 192/3/2
f 189/3/2 191/3/2 193/3/2
f 193/3/2 191/3/2 194/3/2
f 192/3/2 190/3/2 195/3/2
f 195/3/2 190/3/2 196/3/2
f 194/3/2 195/3/2 197/3/2
f 197/3/2 195/3/2 198/3/2
f 199/3/2 200/3/2 201/3/2
f 201/3/2 200/3/2 202/3/2
f 205/2/3 204/2/3 203/2/3
f 206/2/3 204/2/3 205/2/3
f 212/3/3 208/3/3 207/3/3
f 215/5/3 210/5/3 209/5/3
f 216/4/3 211/4/3 210/4/3
f 218/3/3 213/3/3 212/3/3
f 219/5/3 215/5/3 214/5/3
f 220/4/3 217/4/3 216/4/3
f 220/4/3 216/4/3 210/4/3
f 221/4/3 217/4/3 220/4/3
f 224/3/3 218/3/3 212/3/3
f 224/3/3 212/3/3 207/3/3
f 225/2/3 219/2/3 218/2/3
f 225/3/3 218/3/3 224/3/3
f 226/5/3 215/5/3 219/5/3
f 226/2/3 219/2/3 225/2/3
f 227/5/3 210/5/3 215/5/3
f 227/5/3 215/5/3 226/5/3
f 228/4/3 220/4/3 210/4/3
f 230/3/3 223/3/3 222/3/3
f 231/3/3 223/3/3 230/3/3
f 232/5/3 210/5/3 227/5/3
f 233/4/3 229/4/3 228/4/3
f 233/5/3 210/5/3 232/5/3
f 233/4/3 228/4/3 210/4/3
f 234/4/3 229/4/3 233/4/3
f 237/3/3 236/3/3 235/3/3
f 238/3/3 236/3/3 237/3/3
f 239/3/3 237/3/3 235/3/3
f 240/3/3 236/3/3 238/3/3
f 241/3/3 239/3/3 235/3/3
f 241/3/3 240/3/3 239/3/3
f 242/3/3 236/3/3 240/3/3
f 242/3/3 240/3/3 241/3/3
f 247/2/3 244/2/3 243/2/3
f 248/3/3 245/3/3 244/3/3
f 248/2/3 244/2/3 247/2/3
f 249/2/3 246/2/3 245/2/3
f 249/3/3 245/3/3 248/3/3
f 250/2/3 246/2/3 249/2/3
f 253/3/3 252/3/3 251/3/3
f 254/3/3 252/3/3 253/3/3
f 256/3/3 253/3/3 251/3/3
f 257/3/3 253/3/3 256/3/3
f 258/3/3 256/3/3 255/3/3
f 259/3/3 256/3/3 258/3/3
f 262/2/3 261/2/3 260/2/3
f 263/2/3 262/2/3 260/2/3
f 264/2/3 262/2/3 263/2/3
f 267/2/3 266/2/3 265/2/3
f 268/2/3 266/2/3 267/2/3
f 271/3/3 270/3/3 269/3/3
f 275/3/3 272/3/3 271/3/3
f 276/5/3 274/5/3 273/5/3
f 277/3/3 271/3/3 269/3/3
f 277/3/3 275/3/3 271/3/3
f 278/2/3 276/2/3 275/2/3
f 278/3/3 275/3/3 277/3/3
f 279/5/3 274/5/3 276/5/3
f 279/2/3 276/2/3 278/2/3
f 280/5/3 274/5/3 279/5/3
f 281/3/4 282/3/4 283/3/4
f 283/3/4 284/3/4 287/3/4
f 285/5/4 286/5/4 288/5/4
f 281/3/4 283/3/4 289/3/4
f 283/3/4 287/3/4 289/3/4
f 287/2/4 288/2/4 290/2/4
f 289/3/4 287/3/4 290/3/4
f 288/5/4 286/5/4 291/5/4
f 290/2/4 288/2/4 291/2/4
f 291/5/4 286/5/4 292/5/4
f 293/2/4 294/2/4 295/2/4
f 295/2/4 294/2/4 296/2/4
f 297/2/4 298/2/4 299/2/4
f 299/2/4 298/2/4 300/2/4
f 301/2/4 302/2/4 305/2/4
f 302/3/4 303/3/4 306/3/4
f 305/2/4 302/2/4 306/2/4
f 303/2/4 304/2/4 307/2/4
f 306/3/4 303/3/4 307/3/4
f 307/2/4 304/2/4 308/2/4
f 309/3/4 310/3/4 311/3/4
f 311/3/4 310/3/4 312/3/4
f 309/3/4 311/3/4 314/3/4
f 314/3/4 311/3/4 315/3/4
f 313/3/4 314/3/4 316/3/4
f 316/3/4 314/3/4 317/3/4
f 318/3/4 319/3/4 320/3/4
f 320/3/4 319/3/4 321/3/4
f 318/3/4 320/3/4 322/3/4
f 321/3/4 319/3/4 323/3/4
f 318/3/4 322/3/4 324/3/4
f 322/3/4 323/3/4 324/3/4
f 323/3/4 319/3/4 325/3/4
f 324/3/4 323/3/4 325/3/4
f 326/3/4 327/3/4 331/3/4
f 328/5/4 329/5/4 334/5/4
f 329/4/4 330/4/4 335/4/4
f 331/3/4 332/3/4 337/3/4
f 333/5/4 334/5/4 338/5/4
f 335/4/4 336/4/4 339/4/4
f 329/4/4 335/4/4 339/4/4
f 339/4/4 336/4/4 340/4/4
f 331/3/4 337/3/4 343/3/4
f 326/3/4 331/3/4 343/3/4
f 337/2/4 338/2/4 344/2/4
f 343/3/4 337/3/4 344/3/4
f 338/5/4 334/5/4 345/5/4
f 344/2/4 338/2/4 345/2/4
f 334/5/4 329/5/4 346/5/4
f 345/5/4 334/5/4 346/5/4
f 329/4/4 339/4/4 347/4/4
f 341/3/4 342/3/4 349/3/4
f 349/3/4 342/3/4 350/3/4
f 346/5/4 329/5/4 351/5/4
f 347/4/4 348/4/4 352/4/4
f 351/5/4 329/5/4 352/5/4
f 329/4/4 347/4/4 352/4/4
f 352/4/4 348/4/4 353/4/4
f 354/2/4 355/2/4 356/2/4
f 356/2/4 355/2/4 357/2/4
f 360/3/5 359/3/5 358/3/5
f 361/3/5 359/3/5 360/3/5
f 364/3/5 363/3/5 362/3/5
f 365/3/5 363/3/5 364/3/5
f 368/5/5 367/5/5 366/5/5
f 369/5/5 367/5/5 368/5/5
f 372/5/5 371/5/5 370/5/5
f 373/5/5 371/5/5 372/5/5
f 378/5/5 375/5/5 374/5/5
f 379/5/5 377/5/5 376/5/5
f 380/5/5 378/5/5 374/5/5
f 380/5/5 379/5/5 378/5/5
f 381/5/5 377/5/5 379/5/5
f 381/5/5 379/5/5 380/5/5
f 382/5/5 380/5/5 374/5/5
f 383/5/5 380/5/5 382/5/5
f 384/5/5 377/5/5 381/5/5
f 385/5/5 377/5/5 384/5/5
f 388/2/5 387/2/5 386/2/5
f 389/2/5 387/2/5 388/2/5
f 390/6/5 389/6/5 388/6/5
f 391/6/5 389/6/5 390/6/5
f 394/6/5 393/6/5 392/6/5
f 395/6/5 393/6/5 394/6/5
f 396/2/5 395/2/5 394/2/5
f 397/2/5 395/2/5 396/2/5
f 401/3/5 399/3/5 398/3/5
f 402/3/5 399/3/5 401/3/5
f 403/2/5 401/2/5 400/2/5
f 403/2/5 402/2/5 401/2/5
f 404/3/5 399/3/5 402/3/5
f 404/2/5 402/2/5 403/2/5
f 405/3/5 399/3/5 404/3/5
f 406/2/5 403/2/5 400/2/5
f 407/3/5 399/3/5 405/3/5
f 408/2/5 406/2/5 400/2/5
f 408/2/5 407/2/5 406/2/5
f 409/2/5 407/2/5 408/2/5
f 410/3/5 399/3/5 407/3/5
f 410/2/5 407/2/5 409/2/5
f 411/3/5 410/3/5 409/3/5
f 412/3/5 399/3/5 410/3/5
f 412/3/5 410/3/5 411/3/5
f 415/3/5 414/3/5 413/3/5
f 416/3/5 414/3/5 415/3/5
f 419/3/5 418/3/5 417/3/5
f 420/3/5 418/3/5 419/3/5
f 423/2/5 422/2/5 421/2/5
f 424/2/5 422/2/5 423/2/5
f 427/3/5 426/3/5 425/3/5
f 428/3/5 426/3/5 427/3/5
f 429/3/6 430/3/6 431/3/6
f 431/3/6 430/3/6 432/3/6
f 433/3/6 434/3/6 435/3/6
f 435/3/6 434/3/6 436/3/6
f 437/3/6 438/3/6 439/3/6
f 439/3/6 438/3/6 440/3/6
f 441/3/6 442/3/6 443/3/6
f 443/3/6 442/3/6 444/3/6
f 445/4/6 446/4/6 447/4/6
f 447/4/6 446/4/6 448/4/6
f 447/6/6 448/6/6 449/6/6
f 449/6/6 448/6/6 450/6/6
f 449/4/6 450/4/6 451/4/6
f 451/4/6 450/4/6 452/4/6
f 453/4/6 454/4/6 455/4/6
f 455/4/6 454/4/6 456/4/6
f 455/6/6 456/6/6 457/6/6
f 457/6/6 456/6/6 458/6/6
f 457/4/6 458/4/6 459/4/6
f 459/4/6 458/4/6 460/4/6
f 461/2/6 462/2/6 463/2/6
f 463/2/6 462/2/6 464/2/6
f 463/6/6 464/6/6 465/6/6
f 465/6/6 464/6/6 466/6/6
f 465/4/6 466/4/6 468/4/6
f 466/4/6 467/4/6 468/4/6
f 468/4/6 467/4/6 469/4/6
f 469/4/6 467/4/6 471/4/6
f 470/4/6 471/4/6 472/4/6
f 471/4/6 467/4/6 473/4/6
f 472/4/6 471/4/6 473/4/6
f 473/4/6 467/4/6 474/4/6
f 472/6/6 473/6/6 475/6/6
f 475/6/6 473/6/6 476/6/6
f 475/2/6 476/2/6 477/2/6
f 477/2/6 476/2/6 478/2/6
f 479/2/6 480/2/6 481/2/6
f 481/2/6 480/2/6 482/2/6
f 483/3/6 484/3/6 485/3/6
f 485/3/6 484/3/6 486/3/6
f 487/2/6 488/2/6 489/2/6
f 489/2/6 488/2/6 490/2/6
f 491/3/6 492/3/6 493/3/6
f 493/3/6 492/3/6 494/3/6
f 495/3/6 496/3/6 497/3/6
f 497/3/6 496/3/6 498/3/6
f 495/3/6 497/3/6 500/3/6
f 498/3/6 499/3/6 501/3/6
f 501/3/6 499/3/6 502/3/6
f 495/3/6 500/3/6 503/3/6
f 500/3/6 501/3/6 503/3/6
f 503/3/6 501/3/6 504/3/6
f 505/3/6 506/3/6 507/3/6
f 507/3/6 506/3/6 508/3/6
f 509/3/6 510/3/6 511/3/6
f 511/3/6 510/3/6 512/3/6
